<?xml version="1.0" encoding="UTF-8" standalone="no"?>
<svg
   xmlns:dc="http://purl.org/dc/elements/1.1/"
   xmlns:cc="http://creativecommons.org/ns#"
   xmlns:rdf="http://www.w3.org/1999/02/22-rdf-syntax-ns#"
   xmlns:svg="http://www.w3.org/2000/svg"
   xmlns="http://www.w3.org/2000/svg"
   viewBox="0 0 663.22668 402.90668"
   height="402.90668"
   width="663.22668"
   xml:space="preserve"
   id="svg2"
   version="1.1"><metadata
     id="metadata8"><rdf:RDF><cc:Work
         rdf:about=""><dc:format>image/svg+xml</dc:format><dc:type
           rdf:resource="http://purl.org/dc/dcmitype/StillImage" /></cc:Work></rdf:RDF></metadata><defs
     id="defs6"><clipPath
       id="clipPath14"
       clipPathUnits="userSpaceOnUse"><path
         id="path12"
         d="M 389.89,102.35 H 887.31 V 404.53 H 389.89 Z" /></clipPath><clipPath
       id="clipPath308"
       clipPathUnits="userSpaceOnUse"><path
         id="path306"
         d="M 0,0 H 102 V 45 H 0 Z" /></clipPath><clipPath
       id="clipPath334"
       clipPathUnits="userSpaceOnUse"><path
         id="path332"
         d="M 0,0 H 81 V 24 H 0 Z" /></clipPath><clipPath
       id="clipPath354"
       clipPathUnits="userSpaceOnUse"><path
         id="path352"
         d="M 0,0 H 31 V 24 H 0 Z" /></clipPath><clipPath
       id="clipPath380"
       clipPathUnits="userSpaceOnUse"><path
         id="path378"
         d="M 0,0 H 38 V 261 H 0 Z" /></clipPath><clipPath
       id="clipPath400"
       clipPathUnits="userSpaceOnUse"><path
         id="path398"
         d="M 0,0 H 67 V 261 H 0 Z" /></clipPath><clipPath
       id="clipPath420"
       clipPathUnits="userSpaceOnUse"><path
         id="path418"
         d="M 0,0 H 94 V 147 H 0 Z" /></clipPath><clipPath
       id="clipPath446"
       clipPathUnits="userSpaceOnUse"><path
         id="path444"
         d="M 0,0 H 34 V 14 H 0 Z" /></clipPath><clipPath
       id="clipPath486"
       clipPathUnits="userSpaceOnUse"><path
         id="path484"
         d="M 0,0 H 148 V 31 H 0 Z" /></clipPath></defs><g
     clip-path="url(#clipPath14)"
     transform="matrix(1.3333333,0,0,-1.3333333,-519.85333,539.37333)"
     id="g10"><g
       id="g16"><g
         id="g18"><g
           id="g20"><g
             transform="matrix(1,0,0,-1,0,527.25)"
             id="g22"><g
               id="g24"><g
                 id="g26"><path
                   id="path28"
                   style="fill:none;stroke:#000000;stroke-width:0.75;stroke-linecap:round;stroke-linejoin:miter;stroke-miterlimit:4;stroke-dasharray:none;stroke-opacity:1"
                   d="m 544.051,314.5 -31.524,-2.406 m 0,-124.86 v 124.86 m 0,0 -66.238,13.183" /></g><path
                 id="path30"
                 style="fill:#eeeeee;fill-opacity:0.4;fill-rule:nonzero;stroke:none"
                 d="m 544.051,314.5 -31.524,-2.406 v -124.86 z" /><g
                 id="g32"><path
                   id="path34"
                   style="fill:none;stroke:#000000;stroke-width:0.75;stroke-linecap:round;stroke-linejoin:miter;stroke-miterlimit:4;stroke-dasharray:none;stroke-opacity:1"
                   d="m 544.051,189.641 -31.524,-2.407 m 0,0 -66.238,13.18 m 97.762,-10.773 V 314.5 m 0,0 -66.239,13.184" /></g><path
                 id="path36"
                 style="fill:#eeeeee;fill-opacity:0.4;fill-rule:nonzero;stroke:none"
                 d="M 544.051,189.641 V 314.5 L 512.527,187.234 Z" /><g
                 id="g38"><path
                   id="path40"
                   style="fill:none;stroke:#000000;stroke-width:0.75;stroke-linecap:round;stroke-linejoin:miter;stroke-miterlimit:4;stroke-dasharray:none;stroke-opacity:1"
                   d="M 544.051,189.641 477.812,202.82" /></g><path
                 id="path42"
                 style="fill:#eeeeee;fill-opacity:0.4;fill-rule:nonzero;stroke:none"
                 d="m 446.289,325.277 66.238,-13.183 31.524,2.406 z m 66.238,-138.043 v 124.86 l -66.238,-111.68 z" /><g
                 id="g44"><path
                   id="path46"
                   style="fill:none;stroke:#000000;stroke-width:0.75;stroke-linecap:round;stroke-linejoin:miter;stroke-miterlimit:4;stroke-dasharray:none;stroke-opacity:1"
                   d="m 515.461,299.289 -31.523,-2.406 m 0,-14.887 v 14.887 m 0,0 -7.899,1.57 m 39.422,-14.051 -31.523,-2.406 m 0,0 -7.899,1.57" /></g><path
                 id="path48"
                 style="fill:#99ddff;fill-opacity:0.4;fill-rule:nonzero;stroke:none"
                 d="m 483.938,281.996 v 14.887 l -7.899,-13.317 z m 31.523,17.293 -31.523,-2.406 v -14.887 z m -31.523,-2.406 -7.899,1.57 v -14.887 z m -7.899,1.57 7.899,-1.57 31.523,2.406 z" /><g
                 id="g50"><path
                   id="path52"
                   style="fill:none;stroke:#000000;stroke-width:0.75;stroke-linecap:round;stroke-linejoin:miter;stroke-miterlimit:4;stroke-dasharray:none;stroke-opacity:1"
                   d="M 737.598,301.223 539.383,286.102 m 0,-59.184 v 59.184 m 0,0 -31.395,6.246" /></g><path
                 id="path54"
                 style="fill:#eeeeee;fill-opacity:0.4;fill-rule:nonzero;stroke:none"
                 d="M 477.812,327.684 544.051,314.5 V 189.641 Z" /><g
                 id="g56"><path
                   id="path58"
                   style="fill:none;stroke:#000000;stroke-width:0.75;stroke-linecap:round;stroke-linejoin:miter;stroke-miterlimit:4;stroke-dasharray:none;stroke-opacity:1"
                   d="m 476.039,283.566 v 14.887 m 0,0 31.523,2.406" /></g><path
                 id="path60"
                 style="fill:#99ddff;fill-opacity:0.4;fill-rule:nonzero;stroke:none"
                 d="m 515.461,284.402 v 14.887 l -31.523,-17.293 z" /><g
                 id="g62"><path
                   id="path64"
                   style="fill:none;stroke:#000000;stroke-width:0.75;stroke-linecap:round;stroke-linejoin:miter;stroke-miterlimit:4;stroke-dasharray:none;stroke-opacity:1"
                   d="m 476.039,283.566 31.523,2.407" /></g><path
                 id="path66"
                 style="fill:#eeeeee;fill-opacity:0.4;fill-rule:nonzero;stroke:none"
                 d="m 477.812,202.82 66.239,-13.179 -31.524,-2.407 z" /><path
                 id="path68"
                 style="fill:#99ddff;fill-opacity:0.4;fill-rule:nonzero;stroke:none"
                 d="m 476.039,283.566 31.523,2.407 -23.624,-3.977 z" /><g
                 id="g70"><path
                   id="path72"
                   style="fill:none;stroke:#000000;stroke-width:0.75;stroke-linecap:round;stroke-linejoin:miter;stroke-miterlimit:4;stroke-dasharray:none;stroke-opacity:1"
                   d="M 737.598,242.043 539.383,226.918 m 0,0 -31.395,6.25" /></g><path
                 id="path74"
                 style="fill:#99ddff;fill-opacity:0.4;fill-rule:nonzero;stroke:none"
                 d="m 507.562,285.973 7.899,-1.571 -31.523,-2.406 z" /><g
                 id="g76"><path
                   id="path78"
                   style="fill:none;stroke:#000000;stroke-width:0.75;stroke-linecap:round;stroke-linejoin:miter;stroke-miterlimit:4;stroke-dasharray:none;stroke-opacity:1"
                   d="m 515.461,284.402 v 14.887 m 0,0 -7.899,1.57 m 7.899,-16.457 v 14.887 m 0,0 -7.899,1.57 m 7.899,-1.57 8.5,-23.555" /></g><path
                 id="path80"
                 style="fill:#99ddff;fill-opacity:0.4;fill-rule:nonzero;stroke:none"
                 d="m 476.039,283.566 v 14.887 l 31.523,-12.48 z" /><g
                 id="g82"><path
                   id="path84"
                   style="fill:none;stroke:#000000;stroke-width:0.75;stroke-linecap:round;stroke-linejoin:miter;stroke-miterlimit:4;stroke-dasharray:none;stroke-opacity:1"
                   d="m 515.461,284.402 -7.899,1.571 m 7.899,-1.571 -7.899,1.571 m 7.899,-1.571 8.5,-8.668" /></g><path
                 id="path86"
                 style="fill:#99ddff;fill-opacity:0.4;fill-rule:nonzero;stroke:none"
                 d="m 507.562,300.859 -31.523,-2.406 39.422,0.836 z" /><path
                 id="path88"
                 style="fill:#ffbbbb;fill-opacity:0.4;fill-rule:nonzero;stroke:none"
                 d="m 515.461,284.402 v 14.887 l -7.899,1.57 z" /><path
                 id="path90"
                 style="fill:#99ddff;fill-opacity:0.4;fill-rule:nonzero;stroke:none"
                 d="m 507.562,300.859 7.899,-1.57 v -14.887 z" /><path
                 id="path92"
                 style="fill:#ffbbbb;fill-opacity:0.4;fill-rule:nonzero;stroke:none"
                 d="m 515.461,299.289 v -14.887 l 8.5,-8.668 z" /><path
                 id="path94"
                 style="fill:#99ddff;fill-opacity:0.4;fill-rule:nonzero;stroke:none"
                 d="m 476.039,298.453 31.523,2.406 v -14.886 z" /><path
                 id="path96"
                 style="fill:#eeeeee;fill-opacity:0.4;fill-rule:nonzero;stroke:none"
                 d="m 512.527,312.094 -66.238,13.183 V 200.414 Z" /><path
                 id="path98"
                 style="fill:#ffbbbb;fill-opacity:0.4;fill-rule:nonzero;stroke:none"
                 d="m 515.461,284.402 -7.899,16.457 v -14.886 z" /><path
                 id="path100"
                 style="fill:#99ddff;fill-opacity:0.4;fill-rule:nonzero;stroke:none"
                 d="m 507.562,285.973 v 14.886 l 7.899,-16.457 z" /><path
                 id="path102"
                 style="fill:#ffbbbb;fill-opacity:0.4;fill-rule:nonzero;stroke:none"
                 d="m 507.562,300.859 7.899,-1.57 8.5,-23.555 z m 7.899,-16.457 -7.899,1.571 16.399,-10.239 z" /><g
                 id="g104"><path
                   id="path106"
                   style="fill:none;stroke:#000000;stroke-width:0.75;stroke-linecap:round;stroke-linejoin:miter;stroke-miterlimit:4;stroke-dasharray:none;stroke-opacity:1"
                   d="m 507.562,285.973 v 14.886 m 0,0 v -14.886 m 0,14.886 16.399,-25.125" /></g><path
                 id="path108"
                 style="fill:#eeeeee;fill-opacity:0.4;fill-rule:nonzero;stroke:none"
                 d="m 539.383,226.918 v 59.184 l -31.395,-52.934 z" /><g
                 id="g110"><path
                   id="path112"
                   style="fill:none;stroke:#000000;stroke-width:0.75;stroke-linecap:round;stroke-linejoin:miter;stroke-miterlimit:4;stroke-dasharray:none;stroke-opacity:1"
                   d="m 507.562,285.973 16.399,-10.239" /></g><path
                 id="path114"
                 style="fill:#ffbbbb;fill-opacity:0.4;fill-rule:nonzero;stroke:none"
                 d="m 507.562,285.973 v 14.886 l 16.399,-25.125 z" /><path
                 id="path116"
                 style="fill:#eeeeee;fill-opacity:0.4;fill-rule:nonzero;stroke:none"
                 d="m 477.812,327.684 -31.523,-2.407 97.762,-10.777 z m -31.523,-127.27 31.523,2.406 34.715,-15.586 z m 93.094,85.688 -31.395,6.246 v -59.18 z M 477.812,202.82 v 124.864 l 66.239,-138.043 z m 259.786,98.403 -198.215,-15.121 v -59.184 z" /><g
                 id="g118"><path
                   id="path120"
                   style="fill:none;stroke:#000000;stroke-width:0.75;stroke-linecap:round;stroke-linejoin:miter;stroke-miterlimit:4;stroke-dasharray:none;stroke-opacity:1"
                   d="m 446.289,200.414 v 124.863 m 0,0 31.523,2.407 m 30.176,-94.516 v 59.18 m 0,0 198.211,15.125" /></g><path
                 id="path122"
                 style="fill:#eeeeee;fill-opacity:0.4;fill-rule:nonzero;stroke:none"
                 d="m 507.988,292.348 31.395,-6.246 198.215,15.121 z" /><g
                 id="g124"><path
                   id="path126"
                   style="fill:none;stroke:#000000;stroke-width:0.75;stroke-linecap:round;stroke-linejoin:miter;stroke-miterlimit:4;stroke-dasharray:none;stroke-opacity:1"
                   d="m 507.988,233.168 198.211,15.121 m -259.91,-47.875 31.523,2.406" /></g><path
                 id="path128"
                 style="fill:#eeeeee;fill-opacity:0.4;fill-rule:nonzero;stroke:none"
                 d="M 446.289,200.414 V 325.277 L 477.812,202.82 Z m 0,124.863 31.523,2.407 V 202.82 Z" /><g
                 id="g130"><path
                   id="path132"
                   style="fill:none;stroke:#000000;stroke-width:0.75;stroke-linecap:round;stroke-linejoin:miter;stroke-miterlimit:4;stroke-dasharray:none;stroke-opacity:1"
                   d="M 477.812,202.82 V 327.684" /></g><path
                 id="path134"
                 style="fill:#eeeeee;fill-opacity:0.4;fill-rule:nonzero;stroke:none"
                 d="m 507.988,233.168 198.211,15.121 -166.816,-21.371 z m 229.61,8.875 v 59.18 L 539.383,226.918 Z m -229.61,-8.875 v 59.18 l 198.211,-44.059 z m 198.211,15.121 31.399,-6.246 -198.215,-15.125 z m 0,59.184 -198.211,-15.125 229.61,8.875 z" /><g
                 id="g136"><path
                   id="path138"
                   style="fill:none;stroke:#000000;stroke-width:0.75;stroke-linecap:round;stroke-linejoin:miter;stroke-miterlimit:4;stroke-dasharray:none;stroke-opacity:1"
                   d="m 737.598,242.043 v 59.18 m 0,0 -31.399,6.25 m 31.399,-65.43 -31.399,6.246" /></g><path
                 id="path140"
                 style="fill:#eeeeee;fill-opacity:0.4;fill-rule:nonzero;stroke:none"
                 d="m 507.988,292.348 198.211,15.125 v -59.184 z" /><g
                 id="g142"><path
                   id="path144"
                   style="fill:none;stroke:#000000;stroke-width:0.75;stroke-linecap:round;stroke-linejoin:miter;stroke-miterlimit:4;stroke-dasharray:none;stroke-opacity:1"
                   d="m 759.445,404.141 -13.699,-1.047 m 0,-255.371 v 255.371 m 0,0 -8.484,1.687" /></g><path
                 id="path146"
                 style="fill:#eeeeee;fill-opacity:0.4;fill-rule:nonzero;stroke:none"
                 d="m 706.199,307.473 31.399,-6.25 v -59.18 z m 31.063,97.308 8.484,-1.687 13.699,1.047 z" /><g
                 id="g148"><path
                   id="path150"
                   style="fill:none;stroke:#000000;stroke-width:0.75;stroke-linecap:round;stroke-linejoin:miter;stroke-miterlimit:4;stroke-dasharray:none;stroke-opacity:1"
                   d="m 759.445,148.77 v 255.371 m 0,0 -8.484,1.687" /></g><path
                 id="path152"
                 style="fill:#eeeeee;fill-opacity:0.4;fill-rule:nonzero;stroke:none"
                 d="m 759.445,404.141 -13.699,-1.047 V 147.723 Z" /><g
                 id="g154"><path
                   id="path156"
                   style="fill:none;stroke:#000000;stroke-width:0.75;stroke-linecap:round;stroke-linejoin:miter;stroke-miterlimit:4;stroke-dasharray:none;stroke-opacity:1"
                   d="m 737.262,149.41 v 255.371 m 0,0 13.699,1.047" /></g><path
                 id="path158"
                 style="fill:#eeeeee;fill-opacity:0.4;fill-rule:nonzero;stroke:none"
                 d="m 750.961,405.828 -13.699,-1.047 22.183,-0.64 z" /><g
                 id="g160"><path
                   id="path162"
                   style="fill:none;stroke:#000000;stroke-width:0.75;stroke-linecap:round;stroke-linejoin:miter;stroke-miterlimit:4;stroke-dasharray:none;stroke-opacity:1"
                   d="m 729.387,275.328 7.226,0.551 m 49.289,130.277 -13.703,-1.043 m 0,-255.371 v 255.371 m 0,0 -8.484,1.688" /></g><path
                 id="path164"
                 style="fill:#eeeeee;fill-opacity:0.4;fill-rule:nonzero;stroke:none"
                 d="m 745.746,403.094 -8.484,1.687 V 149.41 Z M 706.199,248.289 v 59.184 l 31.399,-65.43 z" /><path
                 id="path166"
                 style="fill:#000000;fill-opacity:1;fill-rule:nonzero;stroke:none"
                 d="m 737.195,274.258 -1.16,0.23 4.828,1.715 z m -1.519,2.383 0.937,1.101 4.25,-1.539 z m 0.359,-2.153 -0.359,2.153 5.187,-0.438 z" /><g
                 id="g168"><path
                   id="path170"
                   style="fill:none;stroke:#000000;stroke-width:0.75;stroke-linecap:round;stroke-linejoin:miter;stroke-miterlimit:4;stroke-dasharray:none;stroke-opacity:1"
                   d="M 750.961,150.457 V 405.828" /></g><path
                 id="path172"
                 style="fill:#eeeeee;fill-opacity:0.4;fill-rule:nonzero;stroke:none"
                 d="m 750.961,405.828 8.484,-1.687 V 148.77 Z m 12.754,0.973 8.484,-1.688 13.703,1.043 z" /><g
                 id="g174"><path
                   id="path176"
                   style="fill:none;stroke:#000000;stroke-width:0.75;stroke-linecap:round;stroke-linejoin:miter;stroke-miterlimit:4;stroke-dasharray:none;stroke-opacity:1"
                   d="m 785.902,150.789 v 255.367 m 0,0 -8.484,1.688" /></g><path
                 id="path178"
                 style="fill:#eeeeee;fill-opacity:0.4;fill-rule:nonzero;stroke:none"
                 d="M 745.746,147.723 V 403.094 L 737.262,149.41 Z m 13.699,1.047 V 404.141 L 745.746,147.723 Z m 26.457,257.386 -13.703,-1.043 V 149.742 Z m -48.64,-1.375 13.699,1.047 V 150.457 Z" /><g
                 id="g180"><path
                   id="path182"
                   style="fill:none;stroke:#000000;stroke-width:0.75;stroke-linecap:round;stroke-linejoin:miter;stroke-miterlimit:4;stroke-dasharray:none;stroke-opacity:1"
                   d="m 763.715,151.43 v 255.371 m 0,0 13.703,1.043" /></g><path
                 id="path184"
                 style="fill:#eeeeee;fill-opacity:0.4;fill-rule:nonzero;stroke:none"
                 d="m 777.418,407.844 -13.703,-1.043 22.187,-0.645 z" /><g
                 id="g186"><path
                   id="path188"
                   style="fill:none;stroke:#000000;stroke-width:0.75;stroke-linecap:round;stroke-linejoin:miter;stroke-miterlimit:4;stroke-dasharray:none;stroke-opacity:1"
                   d="m 755.84,277.348 7.23,0.55 m -3.625,-129.128 -13.699,-1.047 m 0,0 -8.484,1.687 m -31.063,98.879 v 59.184 m 106.156,88.699 -13.703,-1.047 m 0,-231.359 v 231.359 m 0,0 -8.484,1.687" /></g><path
                 id="path190"
                 style="fill:#eeeeee;fill-opacity:0.4;fill-rule:nonzero;stroke:none"
                 d="m 772.199,405.113 -8.484,1.688 V 151.43 Z" /><path
                 id="path192"
                 style="fill:#000000;fill-opacity:1;fill-rule:nonzero;stroke:none"
                 d="m 763.648,276.277 -1.16,0.231 4.832,1.715 z m -1.519,2.383 0.941,1.098 4.25,-1.535 z" /><path
                 id="path194"
                 style="fill:#eeeeee;fill-opacity:0.4;fill-rule:nonzero;stroke:none"
                 d="M 737.262,149.41 V 404.781 L 750.961,150.457 Z" /><path
                 id="path196"
                 style="fill:#000000;fill-opacity:1;fill-rule:nonzero;stroke:none"
                 d="m 762.488,276.508 -0.359,2.152 5.191,-0.437 z" /><g
                 id="g198"><path
                   id="path200"
                   style="fill:none;stroke:#000000;stroke-width:0.75;stroke-linecap:round;stroke-linejoin:miter;stroke-miterlimit:4;stroke-dasharray:none;stroke-opacity:1"
                   d="M 777.418,152.477 V 407.844" /></g><path
                 id="path202"
                 style="fill:#eeeeee;fill-opacity:0.4;fill-rule:nonzero;stroke:none"
                 d="m 750.961,150.457 v 255.371 l 8.484,-257.058 z m 26.457,257.387 8.484,-1.688 V 150.789 Z" /><g
                 id="g204"><path
                   id="path206"
                   style="fill:none;stroke:#000000;stroke-width:0.75;stroke-linecap:round;stroke-linejoin:miter;stroke-miterlimit:4;stroke-dasharray:none;stroke-opacity:1"
                   d="m 759.445,148.77 -8.484,1.687" /></g><path
                 id="path208"
                 style="fill:#eeeeee;fill-opacity:0.4;fill-rule:nonzero;stroke:none"
                 d="m 790.168,396.812 8.484,-1.687 13.703,1.047 z m -39.207,-246.355 8.484,-1.687 -13.699,-1.047 z m 21.238,-0.715 V 405.113 L 763.715,151.43 Z" /><g
                 id="g210"><path
                   id="path212"
                   style="fill:none;stroke:#000000;stroke-width:0.75;stroke-linecap:round;stroke-linejoin:miter;stroke-miterlimit:4;stroke-dasharray:none;stroke-opacity:1"
                   d="m 812.355,164.812 v 231.36 m 0,0 -8.484,1.687" /></g><path
                 id="path214"
                 style="fill:#eeeeee;fill-opacity:0.4;fill-rule:nonzero;stroke:none"
                 d="M 785.902,150.789 V 406.156 L 772.199,149.742 Z m -48.64,-1.379 13.699,1.047 -5.215,-2.734 z" /><g
                 id="g216"><path
                   id="path218"
                   style="fill:none;stroke:#000000;stroke-width:0.75;stroke-linecap:round;stroke-linejoin:miter;stroke-miterlimit:4;stroke-dasharray:none;stroke-opacity:1"
                   d="m 737.262,149.41 13.699,1.047" /></g><path
                 id="path220"
                 style="fill:#eeeeee;fill-opacity:0.4;fill-rule:nonzero;stroke:none"
                 d="m 763.715,406.801 13.703,1.043 V 152.477 Z m 48.64,-10.629 -13.703,-1.047 V 163.766 Z" /><g
                 id="g222"><path
                   id="path224"
                   style="fill:none;stroke:#000000;stroke-width:0.75;stroke-linecap:round;stroke-linejoin:miter;stroke-miterlimit:4;stroke-dasharray:none;stroke-opacity:1"
                   d="m 790.168,165.453 v 231.359 m 0,0 13.703,1.047 m -21.574,-118.496 7.226,0.555 m -3.621,-129.129 -13.703,-1.047 m 0,0 -8.484,1.688" /></g><path
                 id="path226"
                 style="fill:#eeeeee;fill-opacity:0.4;fill-rule:nonzero;stroke:none"
                 d="m 803.871,397.859 -13.703,-1.047 22.187,-0.64 z m -5.219,-2.734 -8.484,1.687 V 165.453 Z" /><path
                 id="path228"
                 style="fill:#000000;fill-opacity:1;fill-rule:nonzero;stroke:none"
                 d="m 790.102,278.297 -1.161,0.23 4.832,1.715 z m -1.516,2.383 0.937,1.097 4.25,-1.535 z" /><path
                 id="path230"
                 style="fill:#eeeeee;fill-opacity:0.4;fill-rule:nonzero;stroke:none"
                 d="M 763.715,151.43 V 406.801 L 777.418,152.477 Z" /><path
                 id="path232"
                 style="fill:#000000;fill-opacity:1;fill-rule:nonzero;stroke:none"
                 d="m 788.941,278.527 -0.355,2.153 5.187,-0.438 z" /><path
                 id="path234"
                 style="fill:#eeeeee;fill-opacity:0.4;fill-rule:nonzero;stroke:none"
                 d="m 777.418,152.477 v 255.367 l 8.484,-257.055 z" /><g
                 id="g236"><path
                   id="path238"
                   style="fill:none;stroke:#000000;stroke-width:0.75;stroke-linecap:round;stroke-linejoin:miter;stroke-miterlimit:4;stroke-dasharray:none;stroke-opacity:1"
                   d="m 803.871,166.5 v 231.359 m -17.969,-247.07 -8.484,1.688" /></g><path
                 id="path240"
                 style="fill:#eeeeee;fill-opacity:0.4;fill-rule:nonzero;stroke:none"
                 d="m 803.871,397.859 8.484,-1.687 v -231.36 z m -5.219,-234.093 v 231.359 l -8.484,-229.672 z m -21.234,-11.289 8.484,-1.688 -13.703,-1.047 z m 34.937,12.335 v 231.36 L 798.652,163.766 Z m -48.64,-13.382 13.703,1.047 -5.219,-2.735 z" /><g
                 id="g242"><path
                   id="path244"
                   style="fill:none;stroke:#000000;stroke-width:0.75;stroke-linecap:round;stroke-linejoin:miter;stroke-miterlimit:4;stroke-dasharray:none;stroke-opacity:1"
                   d="m 763.715,151.43 13.703,1.047 m 34.937,12.335 -13.703,-1.046 m 0,0 -8.484,1.687" /></g><path
                 id="path246"
                 style="fill:#eeeeee;fill-opacity:0.4;fill-rule:nonzero;stroke:none"
                 d="m 790.168,396.812 13.703,1.047 V 166.5 Z m 0,-231.359 V 396.812 L 803.871,166.5 Z m 13.703,1.047 v 231.359 l 8.484,-233.047 z" /><g
                 id="g248"><path
                   id="path250"
                   style="fill:none;stroke:#000000;stroke-width:0.75;stroke-linecap:round;stroke-linejoin:miter;stroke-miterlimit:4;stroke-dasharray:none;stroke-opacity:1"
                   d="m 812.355,164.812 -8.484,1.688" /></g><path
                 id="path252"
                 style="fill:#eeeeee;fill-opacity:0.4;fill-rule:nonzero;stroke:none"
                 d="m 803.871,166.5 8.484,-1.688 -13.703,-1.046 z m -13.703,-1.047 13.703,1.047 -5.219,-2.734 z" /><g
                 id="g254"><path
                   id="path256"
                   style="fill:none;stroke:#000000;stroke-width:0.75;stroke-linecap:round;stroke-linejoin:miter;stroke-miterlimit:4;stroke-dasharray:none;stroke-opacity:1"
                   d="m 790.168,165.453 13.703,1.047" /></g></g></g><g
             id="g258"><text
               id="text262"
               style="font-variant:normal;font-weight:normal;font-size:9px;font-family:ArialMT-Identity;-inkscape-font-specification:ArialMT-Identity-H;writing-mode:lr-tb;fill:#000000;fill-opacity:1;fill-rule:nonzero;stroke:none"
               transform="matrix(1,0,0,-1,391.59,179.83)"><tspan
                 id="tspan260"
                 y="0"
                 x="0 2.5020001 7.506 12.51 17.514 20.016001 22.518 24.516001 32.013 37.016998 42.021 47.025002 49.527 52.523998 57.528 62.532001 67.536003 70.038002 72.540001 77.543999 82.547997 87.552002 90.054001 92.556 97.559998">Input image (225, 225, 3)</tspan></text>
</g><g
             id="g264"><text
               id="text268"
               style="font-variant:normal;font-weight:normal;font-size:9px;font-family:ArialMT-Identity;-inkscape-font-specification:ArialMT-Identity-H;writing-mode:lr-tb;fill:#000000;fill-opacity:1;fill-rule:nonzero;stroke:none"
               transform="matrix(1,0,0,-1,565.25,199.76)"><tspan
                 id="tspan266"
                 y="0"
                 x="0 6.0029998 8.5050001 11.007 13.005 17.504999 19.503 24.507 29.511 32.013 38.511002 43.514999 46.016998 52.02 57.023998 59.526001 62.028 67.031998 72.036003 74.538002 79.542 84.545998 87.047997 92.052002 97.056 99.557999 102.06 105.057 110.061 115.065 120.069 125.073 127.575 130.57201">EfficientNetV2, b1 output (1280,) </tspan></text>
</g><g
             id="g270"><text
               id="text274"
               style="font-variant:normal;font-weight:normal;font-size:9px;font-family:ArialMT-Identity;-inkscape-font-specification:ArialMT-Identity-H;writing-mode:lr-tb;fill:#000000;fill-opacity:1;fill-rule:nonzero;stroke:none"
               transform="matrix(1,0,0,-1,749.16,394.49)"><tspan
                 id="tspan272"
                 y="0"
                 x="0 7.4970002 12.501 18.504 21.006001 25.506001 27.504 32.507999 37.007999 41.507999 43.506001 46.007999 48.006001 53.009998">MLP classifier</tspan></text>
</g><g
             id="g276"><text
               id="text280"
               style="font-variant:normal;font-weight:normal;font-size:9px;font-family:ArialMT-Identity;-inkscape-font-specification:ArialMT-Identity-H;writing-mode:lr-tb;fill:#000000;fill-opacity:1;fill-rule:nonzero;stroke:none"
               transform="matrix(1,0,0,-1,723.54,109.23)"><tspan
                 id="tspan278"
                 y="0"
                 x="0 2.997 8.0010004 13.005 18.009001 20.511">(512,)</tspan></text>
</g><g
             id="g282"><text
               id="text286"
               style="font-variant:normal;font-weight:normal;font-size:9px;font-family:ArialMT-Identity;-inkscape-font-specification:ArialMT-Identity-H;writing-mode:lr-tb;fill:#000000;fill-opacity:1;fill-rule:nonzero;stroke:none"
               transform="matrix(1,0,0,-1,754.85,109.23)"><tspan
                 id="tspan284"
                 y="0"
                 x="0 2.997 8.0010004 13.005 18.009001 20.511">(256,)</tspan></text>
</g><g
             id="g288"><text
               id="text292"
               style="font-variant:normal;font-weight:normal;font-size:9px;font-family:ArialMT-Identity;-inkscape-font-specification:ArialMT-Identity-H;writing-mode:lr-tb;fill:#000000;fill-opacity:1;fill-rule:nonzero;stroke:none"
               transform="matrix(1,0,0,-1,790.15,109.23)"><tspan
                 id="tspan290"
                 y="0"
                 x="0 2.997 8.0010004 10.503">(6,)</tspan></text>
</g><g
             id="g294"><text
               id="text298"
               style="font-variant:normal;font-weight:normal;font-size:9px;font-family:ArialMT-Identity;-inkscape-font-specification:ArialMT-Identity-H;writing-mode:lr-tb;fill:#000000;fill-opacity:1;fill-rule:nonzero;stroke:none"
               transform="matrix(1,0,0,-1,824.88,226.52)"><tspan
                 id="tspan296"
                 y="0"
                 x="0 7.0019999 12.006 14.508 19.511999 24.516001 27.018 29.52 34.02 36.018002 41.021999 45.521999 50.021999 55.026001">Output classes</tspan></text>
</g></g><g
           transform="translate(389.89,102.35)"
           id="g300"><g
             transform="translate(50.976,42.602)"
             id="g302"><g
               id="g304" /><g
               id="g318"><g
                 id="g316"
                 clip-path="url(#clipPath308)"><g
                   id="g314"
                   transform="matrix(1,0,0,-1,0,45)"><g
                     id="g312"><path
                       id="path310"
                       style="fill:#ffffff;fill-opacity:1;fill-rule:nonzero;stroke:none"
                       d="M 0,0 H 102 V 45 H 0 Z" /></g></g></g></g></g></g><g
           transform="translate(389.89,102.35)"
           id="g320"><text
             id="text324"
             style="font-variant:normal;font-weight:normal;font-size:9px;font-family:ArialMT-Identity;-inkscape-font-specification:ArialMT-Identity-H;writing-mode:lr-tb;fill:#000000;fill-opacity:1;fill-rule:nonzero;stroke:none"
             transform="matrix(1,0,0,-1,50.94,77.343)"><tspan
               id="tspan322"
               y="0"
               x="0 2.997 8.0010004 13.005 18.009001 20.511 23.013 28.017 33.021 38.025002 40.527 43.028999 48.033001">(224, 224, 3)</tspan></text>
</g></g><g
         transform="translate(389.89,102.35)"
         id="g326"><g
           transform="translate(167.83,85.992)"
           id="g328"><g
             id="g330" /><g
             id="g344"><g
               id="g342"
               clip-path="url(#clipPath334)"><g
                 id="g340"
                 transform="matrix(1,0,0,-1,0,24)"><g
                   id="g338"><path
                     id="path336"
                     style="fill:#ffffff;fill-opacity:1;fill-rule:nonzero;stroke:none"
                     d="M 0,0 H 81 V 24 H 0 Z" /></g></g></g></g></g></g><g
         transform="translate(389.89,102.35)"
         id="g346"><g
           transform="translate(277.29,82.047)"
           id="g348"><g
             id="g350" /><g
             id="g364"><g
               id="g362"
               clip-path="url(#clipPath354)"><g
                 id="g360"
                 transform="matrix(1,0,0,-1,0,24)"><g
                   id="g358"><path
                     id="path356"
                     style="fill:#ffffff;fill-opacity:1;fill-rule:nonzero;stroke:none"
                     d="M 0,0 H 31 V 24 H 0 Z" /></g></g></g></g></g></g><g
         transform="translate(389.89,102.35)"
         id="g366"><text
           id="text370"
           style="font-variant:normal;font-weight:normal;font-size:9px;font-family:ArialMT-Identity;-inkscape-font-specification:ArialMT-Identity-H;writing-mode:lr-tb;fill:#000000;fill-opacity:1;fill-rule:nonzero;stroke:none"
           transform="matrix(1,0,0,-1,279.72,98.052)"><tspan
             id="tspan368"
             y="0"
             x="0 2.997 8.0010004 13.005 18.009001 20.511">(512,)</tspan></text>
</g><g
         transform="translate(389.89,102.35)"
         id="g372"><g
           transform="translate(396.62,5.625)"
           id="g374"><g
             id="g376" /><g
             id="g390"><g
               id="g388"
               clip-path="url(#clipPath380)"><g
                 id="g386"
                 transform="matrix(1,0,0,-1,0,261)"><g
                   id="g384"><path
                     id="path382"
                     style="fill:#ffffff;fill-opacity:1;fill-rule:nonzero;stroke:none"
                     d="M 0,0 H 38 V 261 H 0 Z" /></g></g></g></g></g></g><g
         transform="translate(389.89,102.35)"
         id="g392"><g
           transform="translate(424.71,5.6247)"
           id="g394"><g
             id="g396" /><g
             id="g410"><g
               id="g408"
               clip-path="url(#clipPath400)"><g
                 id="g406"
                 transform="matrix(1,0,0,-1,0,261)"><g
                   id="g404"><path
                     id="path402"
                     style="fill:#ffffff;fill-opacity:1;fill-rule:nonzero;stroke:none"
                     d="M 0,0 H 67 V 261 H 0 Z" /></g></g></g></g></g></g><g
         transform="translate(389.89,102.35)"
         id="g412"><g
           transform="translate(401.17,3.7749)"
           id="g414"><g
             id="g416" /><g
             id="g436"><g
               id="g434"
               clip-path="url(#clipPath420)"><g
                 id="g432"
                 transform="matrix(1,0,0,-1,0,147)"><g
                   id="g430"><g
                     id="g424"
                     transform="scale(0.994709,1)"><path
                       id="path422"
                       style="fill:none;stroke:#ffffff;stroke-width:2.00425506;stroke-linecap:round;stroke-linejoin:round;stroke-miterlimit:4;stroke-dasharray:none;stroke-opacity:1"
                       d="m 91.798,24.316 v -1.851 4.789 -3.09 3.09 -2.473 L 91.641,23.855 91.488,22.93 91.335,22.312 91.178,22.004 v 12.043 -10.348 3.707 -2.468 l 0.157,0.152 0.306,0.465 0.464,0.769 0.616,0.617 0.463,0.157 0.311,-0.309 0.153,-0.617 v -5.559 6.02 l -0.153,-0.617 -0.153,-0.77 -0.158,-1.082 -0.153,-1.234 v -4.016 5.25 l -0.153,0.774 -0.157,0.769 -0.153,0.773 -0.31,0.461 -0.307,0.157 -0.463,-0.309 -0.463,-0.773 -0.774,-2.778 -0.617,-5.097 -0.463,-5.868 -0.463,-5.711 v -5.558 2.16 l 0.153,1.391 0.157,1.851 0.153,2.008 0.153,2.16 0.157,1.699 0.307,1.391 0.926,1.852 0.311,0.773 0.153,0.773 v 2.469 l 0.157,0.617 0.306,0.618 0.31,0.617 0.464,0.465 0.306,0.617 0.157,0.617 0.153,0.465 v 1.234 l 0.153,0.309 0.158,0.156 V 25.09 l -0.158,-0.461 -0.463,-0.93 -0.616,-1.234 -0.464,-1.391 -0.77,-2.16 -0.773,-2.16 -0.617,-2.008 -0.62,-2.316 -0.153,-1.547 V 9.34 15.824 l 0.153,0.93 0.157,0.926 0.463,1.699 0.464,2.004 0.306,2.008 0.31,1.855 v 3.086" /></g><g
                     id="g428"
                     transform="scale(0.994709,1)"><path
                       id="path426"
                       style="fill:none;stroke:#ffffff;stroke-width:2.00425506;stroke-linecap:round;stroke-linejoin:round;stroke-miterlimit:4;stroke-dasharray:none;stroke-opacity:1"
                       d="m 1.001,145.996 0.209,-0.414 0.255,-0.359 0.616,-0.465 0.927,-0.309 1.084,-0.308 H 11.349 1.312 2.081 l 1.701,0.156 3.707,0.617 1.696,0.309 1.237,0.156 h 2.16 -1.08 10.654 -12.66 0.463" /></g></g></g></g></g></g></g><g
         transform="translate(389.89,102.35)"
         id="g438"><g
           transform="translate(362.96,3.1586)"
           id="g440"><g
             id="g442" /><g
             id="g458"><g
               id="g456"
               clip-path="url(#clipPath446)"><g
                 id="g454"
                 transform="matrix(1,0,0,-1,0,14)"><g
                   id="g452"><g
                     id="g450"
                     transform="scale(1,0.966752)"><path
                       id="path448"
                       style="fill:none;stroke:#ffffff;stroke-width:2.04313898;stroke-linecap:round;stroke-linejoin:round;stroke-miterlimit:4;stroke-dasharray:none;stroke-opacity:1"
                       d="M 4.168,9.677 H 3.75 L 3.699,9.52 3.539,9.209 V 7.633 L 3.699,7.16 4.168,6.372 4.641,5.431 5.113,4.17 5.43,2.909 V 1.968 L 5.273,1.337 4.957,1.022 H 4.641 L 4.328,1.337 4.168,1.81 V 4.8 l 0.16,1.099 0.313,0.788 0.472,1.103 0.789,0.788 0.786,0.942 0.628,0.945 0.633,0.473 0.313,0.315 0.156,-0.315 0.16,-0.473 V 9.677 L 8.418,8.578 8.105,7.475 7.477,6.214 6.844,5.115 6.059,4.485 5.113,4.17 4.484,4.012 H 3.383 L 2.438,4.17 1.809,4.485 1.18,5.115 1.023,5.899 V 8.105 L 1.18,8.736 1.652,9.209 2.281,9.52 3.066,9.677 h 2.52 L 5.902,9.52 6.059,9.051 V 7.002 L 5.902,6.687 5.586,6.53 H 2.125 L 1.492,6.687 1.18,6.845 1.023,7.16 V 8.736 L 1.18,9.209 1.652,9.52 2.281,9.677 H 5.43 L 5.902,9.366 6.059,8.736 V 7.318 L 5.742,6.53 5.273,6.057 4.641,5.588 4.012,5.273 H 3.383 L 2.91,5.431 2.594,5.746 2.281,6.214 V 9.52 l 0.157,0.472 0.316,0.158 0.473,0.158 H 4.484 L 4.957,10.15 5.273,9.835 5.43,9.051 V 7.948 L 5.273,6.845 4.957,5.746 4.484,5.115 4.012,4.8 3.383,4.643 2.754,4.8 2.281,5.115 1.809,5.588 1.652,6.372 v 3.305 l 0.313,0.473 0.473,0.315 0.472,0.473 0.629,0.315 0.629,0.158 0.633,0.157 H 5.43 L 5.902,11.411 6.215,10.938 6.375,10.308 6.531,9.366 6.688,8.421 6.531,7.79 6.375,7.318 6.059,7.16 H 2.91 L 2.125,7.633 1.492,8.263 1.18,8.893 1.023,9.677 1.18,9.992 1.652,10.15 2.281,10.308 H 5.113 L 5.742,10.15 6.059,9.835 V 7.948 L 5.902,7.002 5.43,6.214 4.801,5.899 4.168,6.057 3.699,6.372 3.539,6.687 v 2.364 l 0.316,0.941 0.473,0.473 0.629,0.315 0.629,0.158 H 6.531 L 6.844,10.623 7.16,10.308 7.316,9.677 V 8.893 L 7.16,8.421 6.844,7.79 6.375,7.475 5.586,7.318 4.801,7.16 H 2.594 L 1.809,7.318 1.18,7.79 1.023,8.421 v 1.571 l 0.157,0.631 0.472,0.472 0.629,0.316 0.785,0.157 H 5.113 L 5.586,11.411 5.902,11.095 6.059,10.623 V 10.15 L 5.902,9.835 5.586,9.677 H 3.383 L 3.066,9.835 2.91,10.15 l 0.156,0.63 0.317,0.631 0.629,0.472 0.789,0.316 H 6.059 L 6.375,12.041 6.531,11.726 6.688,11.095 V 9.835 L 6.531,9.366 6.215,9.209 5.742,9.051 H 5.43 V 9.209 L 5.586,9.366 6.059,9.52 6.531,9.677 H 9.363 L 9.68,9.52 9.523,9.366 9.207,9.209 8.578,9.051 H 8.105 V 9.209 L 8.262,9.366 8.891,9.52 9.523,9.677 h 1.102 l 0.469,0.158 0.472,0.157 0.633,0.158 0.785,0.158 h 5.039 -2.046 6.609 -2.832 L 18.336,10.15 16.605,9.992 15.344,9.835 14.242,9.677 H 7.949 V 9.52 L 8.418,9.366 9.523,9.209 11.094,9.051 h 12.91 l 0.473,0.158 0.312,0.157 0.16,0.311 -0.16,0.315 -0.945,0.158 -1.414,0.158 h -5.512 5.824 l 0.473,0.157 0.316,0.315 v 0.315 l -0.629,0.316 -1.101,0.157 h -4.41 l -0.629,0.158 v 0.157 l 0.472,0.158 1.102,0.158 h 5.352 -5.665 6.137 L 24.477,12.041 24.16,11.568 23.375,10.938 21.801,10.308 20.066,9.835 19.125,9.677 H 18.492 33.133 32.977 L 31.875,9.366 29.984,8.736 27.625,8.105 25.418,7.475 23.375,7.16 H 18.652 L 18.336,6.845 18.809,6.53 19.91,6.214 21.641,5.899 h 6.613 -0.629 L 26.207,5.746 24.477,5.588 22.586,5.431 20.699,5.273 h -6.457 11.02 L 25.105,5.115 24.789,4.8 23.844,4.327 22.586,3.855 21.801,3.54 20.699,3.382 h -2.676 0.157 l 0.312,0.158 0.16,0.315 V 5.273 L 18.492,5.746 18.18,6.372 17.707,6.845 16.449,7.16 H 10.465 21.641 L 22.113,6.845 22.273,6.53 21.957,5.899 21.168,5.273 20.066,4.958 18.652,4.485 17.234,4.17 14.086,3.54 12.828,3.382 h -3.937 3.308 l 0.785,0.158 0.789,0.315 1.571,0.63 0.472,0.158 h 0.317 -7.715 4.41 L 13.457,4.8 13.301,5.273 12.668,5.746 11.727,6.214 11.094,6.53 h -0.156 4.25 L 15.66,6.214 15.977,5.746 16.133,5.273 15.977,4.8 15.66,4.643 H 8.418 V 4.8 L 8.734,4.958 8.891,5.273 V 5.588 L 8.734,5.746 8.262,5.899 H 6.059 13.613 4.957 5.902 L 6.688,6.057 7.633,6.214 8.734,6.53 9.68,6.845 10.465,7.002 10.938,7.16 h 0.316 l 0.156,0.158 0.156,0.315 V 7.948 L 11.254,8.263 10.465,8.421 H 7.16 L 6.531,8.263 6.215,7.948 6.059,7.633 6.375,7.318 6.844,7.16 H 8.105 L 8.418,7.002 8.578,6.687 V 5.588 L 8.418,4.958 7.949,4.485 7.004,3.54 6.688,3.067 V 2.279 L 6.844,2.125 7.004,2.279 7.16,2.594 7.316,3.067 V 4.17 L 7.16,4.485 6.688,4.643 H 4.484 L 3.855,4.485 3.383,4.17 3.066,3.697 2.91,3.067 V 2.594 L 3.066,2.279 3.383,2.125 H 6.844 L 7.16,2.279 7.316,2.594 V 3.855 L 7.16,4.327 6.844,4.643 H 4.328 L 3.855,4.485 3.539,4.012 V 3.382 L 3.699,2.752 4.012,2.279 4.641,2.125 h 2.363 l 0.473,0.154 0.472,0.315 0.313,0.63 0.945,1.261 0.316,0.63 0.313,0.473 V 6.214 L 9.68,6.687 9.363,7.002 8.891,7.16 H 8.418 L 8.734,7.002 9.363,6.845 9.836,6.53 10.465,6.214 10.938,6.057 11.727,5.899 h 9.914 l 0.945,0.158 0.629,0.157 0.473,0.316 0.472,0.472 0.473,0.631 0.629,0.788 0.629,0.945 0.472,0.942 0.317,0.787 0.156,0.946 -0.156,0.63 -0.157,0.469 -0.316,0.315 -0.316,-0.157 -0.157,-0.312 -0.156,-0.315 V 9.209 L 25.418,8.893 25.105,8.578 24.633,8.421 h -0.629 l -0.473,0.157 -0.316,0.315 -0.156,0.316 0.156,0.311 0.16,0.157 h 4.09 l 0.789,0.315 0.945,0.473 0.785,0.473 0.789,0.473 0.786,0.157 h 1.73 L 32.66,11.095 31.559,10.623 29.828,9.992 28.094,9.366 25.578,9.051 h -4.094 10.075" /></g></g></g></g></g></g></g><g
         transform="translate(389.89,102.35)"
         id="g460"><text
           id="text464"
           style="font-variant:normal;font-weight:normal;font-size:9px;font-family:ArialMT-Identity;-inkscape-font-specification:ArialMT-Identity-H;writing-mode:lr-tb;fill:#000000;fill-opacity:1;fill-rule:nonzero;stroke:none"
           transform="matrix(1,0,0,-1,375.87,8.2826)"><tspan
             id="tspan462"
             y="0"
             x="0 2.997 8.0010004 10.503">(6,)</tspan></text>
</g><g
         transform="translate(389.89,102.35)"
         id="g466"><text
           id="text470"
           style="font-variant:normal;font-weight:normal;font-size:9px;font-family:ArialMT-Identity;-inkscape-font-specification:ArialMT-Identity-H;writing-mode:lr-tb;fill:#000000;fill-opacity:1;fill-rule:nonzero;stroke:none"
           transform="matrix(1,0,0,-1,165.33,97.986)"><tspan
             id="tspan468"
             y="0"
             x="0 6.0029998 13.005 20.007 25.011 30.014999 32.516998 37.521 40.518002 45.018002 50.021999 52.02 54.521999 59.526001 64.026001 66.528 71.531998 74.528999 79.532997">VGG19 architecture,</tspan></text>
</g><g
         transform="translate(389.89,102.35)"
         id="g472"><text
           id="text476"
           style="font-variant:normal;font-weight:normal;font-size:9px;font-family:ArialMT-Identity;-inkscape-font-specification:ArialMT-Identity-H;writing-mode:lr-tb;fill:#000000;fill-opacity:1;fill-rule:nonzero;stroke:none"
           transform="matrix(1,0,0,-1,402.99,142.11)"><tspan
             id="tspan474"
             y="0"
             x="0 7.0019999 12.006 14.508 19.511999 24.516001 27.018 29.52 34.02 36.018002 41.021999 45.521999 50.021999 55.026001">Output classes</tspan></text>
</g></g><g
       transform="translate(389.89,102.35)"
       id="g478"><g
         transform="translate(160.93,74.651)"
         id="g480"><g
           id="g482" /><g
           id="g496"><g
             id="g494"
             clip-path="url(#clipPath486)"><g
               id="g492"
               transform="matrix(1,0,0,-1,0,31)"><g
                 id="g490"><path
                   id="path488"
                   style="fill:#ffffff;fill-opacity:1;fill-rule:nonzero;stroke:none"
                   d="M 0,0 H 148 V 31 H 0 Z" /></g></g></g></g></g></g><g
       transform="translate(389.89,102.35)"
       id="g498"><text
         id="text502"
         style="font-variant:normal;font-weight:normal;font-size:9px;font-family:ArialMT-Identity;-inkscape-font-specification:ArialMT-Identity-H;writing-mode:lr-tb;fill:#000000;fill-opacity:1;fill-rule:nonzero;stroke:none"
         transform="matrix(1,0,0,-1,163.85,95.094)"><tspan
           id="tspan500"
           y="0"
           x="0 6.0029998 13.005 20.007 25.011 30.014999 32.516998 37.521 40.518002 45.018002 50.021999 52.02 54.521999 59.526001 64.026001 66.528 71.531998 74.528999 79.532997 82.035004 84.537003 89.541 94.544998 97.046997 102.051 107.055 109.557 112.059 115.056 120.06 125.064 130.06799 132.57001">VGG19 architecture, output (512,)</tspan></text>
</g></g></svg>