<?xml version="1.0" encoding="utf-8"?>
<svg viewBox="0 0 663.22668 402.90668" xmlns="http://www.w3.org/2000/svg">
  <defs>
    <clipPath id="clipPath14" clipPathUnits="userSpaceOnUse">
      <path id="path12" d="M 389.89,102.35 H 887.31 V 404.53 H 389.89 Z"/>
    </clipPath>
    <clipPath id="clipPath304" clipPathUnits="userSpaceOnUse">
      <path id="path302" d="M 0,0 H 102 V 45 H 0 Z"/>
    </clipPath>
  </defs>
  <rect x="0.1" y="0.214" width="662.763" height="404.965" style="stroke: rgb(0, 0, 0); fill: rgb(255, 255, 255);"/>
  <g clip-path="url(#clipPath14)" transform="matrix(1.333333, 0, 0, -1.333333, -519.85334, 539.37336)" id="g10">
    <g id="g16">
      <g transform="matrix(1,0,0,-1,0,527.25)" id="g18">
        <g id="g20">
          <g id="g22">
            <path id="path24" style="fill:none;stroke:#000000;stroke-width:0.75;stroke-linecap:round;stroke-linejoin:miter;stroke-miterlimit:4;stroke-dasharray:none;stroke-opacity:1" d="m 544.051,314.5 -31.524,-2.406 m 0,-124.86 v 124.86 m 0,0 -66.238,13.183"/>
          </g>
          <path id="path26" style="fill:#eeeeee;fill-opacity:0.4;fill-rule:nonzero;stroke:none" d="m 544.051,314.5 -31.524,-2.406 v -124.86 z"/>
          <g id="g28">
            <path id="path30" style="fill:none;stroke:#000000;stroke-width:0.75;stroke-linecap:round;stroke-linejoin:miter;stroke-miterlimit:4;stroke-dasharray:none;stroke-opacity:1" d="m 544.051,189.641 -31.524,-2.407 m 0,0 -66.238,13.18 m 97.762,-10.773 V 314.5 m 0,0 -66.239,13.184"/>
          </g>
          <path id="path32" style="fill:#eeeeee;fill-opacity:0.4;fill-rule:nonzero;stroke:none" d="M 544.051,189.641 V 314.5 L 512.527,187.234 Z"/>
          <g id="g34">
            <path id="path36" style="fill:none;stroke:#000000;stroke-width:0.75;stroke-linecap:round;stroke-linejoin:miter;stroke-miterlimit:4;stroke-dasharray:none;stroke-opacity:1" d="M 544.051,189.641 477.812,202.82"/>
          </g>
          <path id="path38" style="fill:#eeeeee;fill-opacity:0.4;fill-rule:nonzero;stroke:none" d="m 446.289,325.277 66.238,-13.183 31.524,2.406 z m 66.238,-138.043 v 124.86 l -66.238,-111.68 z"/>
          <g id="g40">
            <path id="path42" style="fill:none;stroke:#000000;stroke-width:0.75;stroke-linecap:round;stroke-linejoin:miter;stroke-miterlimit:4;stroke-dasharray:none;stroke-opacity:1" d="m 515.461,299.289 -31.523,-2.406 m 0,-14.887 v 14.887 m 0,0 -7.899,1.57 m 39.422,-14.051 -31.523,-2.406 m 0,0 -7.899,1.57"/>
          </g>
          <path id="path44" style="fill:#99ddff;fill-opacity:0.4;fill-rule:nonzero;stroke:none" d="m 483.938,281.996 v 14.887 l -7.899,-13.317 z m 31.523,17.293 -31.523,-2.406 v -14.887 z m -31.523,-2.406 -7.899,1.57 v -14.887 z m -7.899,1.57 7.899,-1.57 31.523,2.406 z"/>
          <g id="g46">
            <path id="path48" style="fill:none;stroke:#000000;stroke-width:0.75;stroke-linecap:round;stroke-linejoin:miter;stroke-miterlimit:4;stroke-dasharray:none;stroke-opacity:1" d="M 737.598,301.223 539.383,286.102 m 0,-59.184 v 59.184 m 0,0 -31.395,6.246"/>
          </g>
          <path id="path50" style="fill:#eeeeee;fill-opacity:0.4;fill-rule:nonzero;stroke:none" d="M 477.812,327.684 544.051,314.5 V 189.641 Z"/>
          <g id="g52">
            <path id="path54" style="fill:none;stroke:#000000;stroke-width:0.75;stroke-linecap:round;stroke-linejoin:miter;stroke-miterlimit:4;stroke-dasharray:none;stroke-opacity:1" d="m 476.039,283.566 v 14.887 m 0,0 31.523,2.406"/>
          </g>
          <path id="path56" style="fill:#99ddff;fill-opacity:0.4;fill-rule:nonzero;stroke:none" d="m 515.461,284.402 v 14.887 l -31.523,-17.293 z"/>
          <g id="g58">
            <path id="path60" style="fill:none;stroke:#000000;stroke-width:0.75;stroke-linecap:round;stroke-linejoin:miter;stroke-miterlimit:4;stroke-dasharray:none;stroke-opacity:1" d="m 476.039,283.566 31.523,2.407"/>
          </g>
          <path id="path62" style="fill:#eeeeee;fill-opacity:0.4;fill-rule:nonzero;stroke:none" d="m 477.812,202.82 66.239,-13.179 -31.524,-2.407 z"/>
          <path id="path64" style="fill:#99ddff;fill-opacity:0.4;fill-rule:nonzero;stroke:none" d="m 476.039,283.566 31.523,2.407 -23.624,-3.977 z"/>
          <g id="g66">
            <path id="path68" style="fill:none;stroke:#000000;stroke-width:0.75;stroke-linecap:round;stroke-linejoin:miter;stroke-miterlimit:4;stroke-dasharray:none;stroke-opacity:1" d="M 737.598,242.043 539.383,226.918 m 0,0 -31.395,6.25"/>
          </g>
          <path id="path70" style="fill:#99ddff;fill-opacity:0.4;fill-rule:nonzero;stroke:none" d="m 507.562,285.973 7.899,-1.571 -31.523,-2.406 z"/>
          <g id="g72">
            <path id="path74" style="fill:none;stroke:#000000;stroke-width:0.75;stroke-linecap:round;stroke-linejoin:miter;stroke-miterlimit:4;stroke-dasharray:none;stroke-opacity:1" d="m 515.461,284.402 v 14.887 m 0,0 -7.899,1.57 m 7.899,-16.457 v 14.887 m 0,0 -7.899,1.57 m 7.899,-1.57 8.5,-23.555"/>
          </g>
          <path id="path76" style="fill:#99ddff;fill-opacity:0.4;fill-rule:nonzero;stroke:none" d="m 476.039,283.566 v 14.887 l 31.523,-12.48 z"/>
          <g id="g78">
            <path id="path80" style="fill:none;stroke:#000000;stroke-width:0.75;stroke-linecap:round;stroke-linejoin:miter;stroke-miterlimit:4;stroke-dasharray:none;stroke-opacity:1" d="m 515.461,284.402 -7.899,1.571 m 7.899,-1.571 -7.899,1.571 m 7.899,-1.571 8.5,-8.668"/>
          </g>
          <path id="path82" style="fill:#99ddff;fill-opacity:0.4;fill-rule:nonzero;stroke:none" d="m 507.562,300.859 -31.523,-2.406 39.422,0.836 z"/>
          <path id="path84" style="fill:#ffbbbb;fill-opacity:0.4;fill-rule:nonzero;stroke:none" d="m 515.461,284.402 v 14.887 l -7.899,1.57 z"/>
          <path id="path86" style="fill:#99ddff;fill-opacity:0.4;fill-rule:nonzero;stroke:none" d="m 507.562,300.859 7.899,-1.57 v -14.887 z"/>
          <path id="path88" style="fill:#ffbbbb;fill-opacity:0.4;fill-rule:nonzero;stroke:none" d="m 515.461,299.289 v -14.887 l 8.5,-8.668 z"/>
          <path id="path90" style="fill:#99ddff;fill-opacity:0.4;fill-rule:nonzero;stroke:none" d="m 476.039,298.453 31.523,2.406 v -14.886 z"/>
          <path id="path92" style="fill:#eeeeee;fill-opacity:0.4;fill-rule:nonzero;stroke:none" d="m 512.527,312.094 -66.238,13.183 V 200.414 Z"/>
          <path id="path94" style="fill:#ffbbbb;fill-opacity:0.4;fill-rule:nonzero;stroke:none" d="m 515.461,284.402 -7.899,16.457 v -14.886 z"/>
          <path id="path96" style="fill:#99ddff;fill-opacity:0.4;fill-rule:nonzero;stroke:none" d="m 507.562,285.973 v 14.886 l 7.899,-16.457 z"/>
          <path id="path98" style="fill:#ffbbbb;fill-opacity:0.4;fill-rule:nonzero;stroke:none" d="m 507.562,300.859 7.899,-1.57 8.5,-23.555 z m 7.899,-16.457 -7.899,1.571 16.399,-10.239 z"/>
          <g id="g100">
            <path id="path102" style="fill:none;stroke:#000000;stroke-width:0.75;stroke-linecap:round;stroke-linejoin:miter;stroke-miterlimit:4;stroke-dasharray:none;stroke-opacity:1" d="m 507.562,285.973 v 14.886 m 0,0 v -14.886 m 0,14.886 16.399,-25.125"/>
          </g>
          <path id="path104" style="fill:#eeeeee;fill-opacity:0.4;fill-rule:nonzero;stroke:none" d="m 539.383,226.918 v 59.184 l -31.395,-52.934 z"/>
          <g id="g106">
            <path id="path108" style="fill:none;stroke:#000000;stroke-width:0.75;stroke-linecap:round;stroke-linejoin:miter;stroke-miterlimit:4;stroke-dasharray:none;stroke-opacity:1" d="m 507.562,285.973 16.399,-10.239"/>
          </g>
          <path id="path110" style="fill:#ffbbbb;fill-opacity:0.4;fill-rule:nonzero;stroke:none" d="m 507.562,285.973 v 14.886 l 16.399,-25.125 z"/>
          <path id="path112" style="fill:#eeeeee;fill-opacity:0.4;fill-rule:nonzero;stroke:none" d="m 477.812,327.684 -31.523,-2.407 97.762,-10.777 z m -31.523,-127.27 31.523,2.406 34.715,-15.586 z m 93.094,85.688 -31.395,6.246 v -59.18 z M 477.812,202.82 v 124.864 l 66.239,-138.043 z m 259.786,98.403 -198.215,-15.121 v -59.184 z"/>
          <g id="g114">
            <path id="path116" style="fill:none;stroke:#000000;stroke-width:0.75;stroke-linecap:round;stroke-linejoin:miter;stroke-miterlimit:4;stroke-dasharray:none;stroke-opacity:1" d="m 446.289,200.414 v 124.863 m 0,0 31.523,2.407 m 30.176,-94.516 v 59.18 m 0,0 198.211,15.125"/>
          </g>
          <path id="path118" style="fill:#eeeeee;fill-opacity:0.4;fill-rule:nonzero;stroke:none" d="m 507.988,292.348 31.395,-6.246 198.215,15.121 z"/>
          <g id="g120">
            <path id="path122" style="fill:none;stroke:#000000;stroke-width:0.75;stroke-linecap:round;stroke-linejoin:miter;stroke-miterlimit:4;stroke-dasharray:none;stroke-opacity:1" d="m 507.988,233.168 198.211,15.121 m -259.91,-47.875 31.523,2.406"/>
          </g>
          <path id="path124" style="fill:#eeeeee;fill-opacity:0.4;fill-rule:nonzero;stroke:none" d="M 446.289,200.414 V 325.277 L 477.812,202.82 Z m 0,124.863 31.523,2.407 V 202.82 Z"/>
          <g id="g126">
            <path id="path128" style="fill:none;stroke:#000000;stroke-width:0.75;stroke-linecap:round;stroke-linejoin:miter;stroke-miterlimit:4;stroke-dasharray:none;stroke-opacity:1" d="M 477.812,202.82 V 327.684"/>
          </g>
          <path id="path130" style="fill:#eeeeee;fill-opacity:0.4;fill-rule:nonzero;stroke:none" d="m 507.988,233.168 198.211,15.121 -166.816,-21.371 z m 229.61,8.875 v 59.18 L 539.383,226.918 Z m -229.61,-8.875 v 59.18 l 198.211,-44.059 z m 198.211,15.121 31.399,-6.246 -198.215,-15.125 z m 0,59.184 -198.211,-15.125 229.61,8.875 z"/>
          <g id="g132">
            <path id="path134" style="fill:none;stroke:#000000;stroke-width:0.75;stroke-linecap:round;stroke-linejoin:miter;stroke-miterlimit:4;stroke-dasharray:none;stroke-opacity:1" d="m 737.598,242.043 v 59.18 m 0,0 -31.399,6.25 m 31.399,-65.43 -31.399,6.246"/>
          </g>
          <path id="path136" style="fill:#eeeeee;fill-opacity:0.4;fill-rule:nonzero;stroke:none" d="m 507.988,292.348 198.211,15.125 v -59.184 z"/>
          <g id="g138">
            <path id="path140" style="fill:none;stroke:#000000;stroke-width:0.75;stroke-linecap:round;stroke-linejoin:miter;stroke-miterlimit:4;stroke-dasharray:none;stroke-opacity:1" d="m 759.445,404.141 -13.699,-1.047 m 0,-255.371 v 255.371 m 0,0 -8.484,1.687"/>
          </g>
          <path id="path142" style="fill:#eeeeee;fill-opacity:0.4;fill-rule:nonzero;stroke:none" d="m 706.199,307.473 31.399,-6.25 v -59.18 z m 31.063,97.308 8.484,-1.687 13.699,1.047 z"/>
          <g id="g144">
            <path id="path146" style="fill:none;stroke:#000000;stroke-width:0.75;stroke-linecap:round;stroke-linejoin:miter;stroke-miterlimit:4;stroke-dasharray:none;stroke-opacity:1" d="m 759.445,148.77 v 255.371 m 0,0 -8.484,1.687"/>
          </g>
          <path id="path148" style="fill:#eeeeee;fill-opacity:0.4;fill-rule:nonzero;stroke:none" d="m 759.445,404.141 -13.699,-1.047 V 147.723 Z"/>
          <g id="g150">
            <path id="path152" style="fill:none;stroke:#000000;stroke-width:0.75;stroke-linecap:round;stroke-linejoin:miter;stroke-miterlimit:4;stroke-dasharray:none;stroke-opacity:1" d="m 737.262,149.41 v 255.371 m 0,0 13.699,1.047"/>
          </g>
          <path id="path154" style="fill:#eeeeee;fill-opacity:0.4;fill-rule:nonzero;stroke:none" d="m 750.961,405.828 -13.699,-1.047 22.183,-0.64 z"/>
          <g id="g156">
            <path id="path158" style="fill:none;stroke:#000000;stroke-width:0.75;stroke-linecap:round;stroke-linejoin:miter;stroke-miterlimit:4;stroke-dasharray:none;stroke-opacity:1" d="m 729.387,275.328 7.226,0.551 m 49.289,130.277 -13.703,-1.043 m 0,-255.371 v 255.371 m 0,0 -8.484,1.688"/>
          </g>
          <path id="path160" style="fill:#eeeeee;fill-opacity:0.4;fill-rule:nonzero;stroke:none" d="m 745.746,403.094 -8.484,1.687 V 149.41 Z M 706.199,248.289 v 59.184 l 31.399,-65.43 z"/>
          <path id="path162" style="fill:#000000;fill-opacity:1;fill-rule:nonzero;stroke:none" d="m 737.195,274.258 -1.16,0.23 4.828,1.715 z m -1.519,2.383 0.937,1.101 4.25,-1.539 z m 0.359,-2.153 -0.359,2.153 5.187,-0.438 z"/>
          <g id="g164">
            <path id="path166" style="fill:none;stroke:#000000;stroke-width:0.75;stroke-linecap:round;stroke-linejoin:miter;stroke-miterlimit:4;stroke-dasharray:none;stroke-opacity:1" d="M 750.961,150.457 V 405.828"/>
          </g>
          <path id="path168" style="fill:#eeeeee;fill-opacity:0.4;fill-rule:nonzero;stroke:none" d="m 750.961,405.828 8.484,-1.687 V 148.77 Z m 12.754,0.973 8.484,-1.688 13.703,1.043 z"/>
          <g id="g170">
            <path id="path172" style="fill:none;stroke:#000000;stroke-width:0.75;stroke-linecap:round;stroke-linejoin:miter;stroke-miterlimit:4;stroke-dasharray:none;stroke-opacity:1" d="m 785.902,150.789 v 255.367 m 0,0 -8.484,1.688"/>
          </g>
          <path id="path174" style="fill:#eeeeee;fill-opacity:0.4;fill-rule:nonzero;stroke:none" d="M 745.746,147.723 V 403.094 L 737.262,149.41 Z m 13.699,1.047 V 404.141 L 745.746,147.723 Z m 26.457,257.386 -13.703,-1.043 V 149.742 Z m -48.64,-1.375 13.699,1.047 V 150.457 Z"/>
          <g id="g176">
            <path id="path178" style="fill:none;stroke:#000000;stroke-width:0.75;stroke-linecap:round;stroke-linejoin:miter;stroke-miterlimit:4;stroke-dasharray:none;stroke-opacity:1" d="m 763.715,151.43 v 255.371 m 0,0 13.703,1.043"/>
          </g>
          <path id="path180" style="fill:#eeeeee;fill-opacity:0.4;fill-rule:nonzero;stroke:none" d="m 777.418,407.844 -13.703,-1.043 22.187,-0.645 z"/>
          <g id="g182">
            <path id="path184" style="fill:none;stroke:#000000;stroke-width:0.75;stroke-linecap:round;stroke-linejoin:miter;stroke-miterlimit:4;stroke-dasharray:none;stroke-opacity:1" d="m 755.84,277.348 7.23,0.55 m -3.625,-129.128 -13.699,-1.047 m 0,0 -8.484,1.687 m -31.063,98.879 v 59.184 m 106.156,88.699 -13.703,-1.047 m 0,-231.359 v 231.359 m 0,0 -8.484,1.687"/>
          </g>
          <path id="path186" style="fill:#eeeeee;fill-opacity:0.4;fill-rule:nonzero;stroke:none" d="m 772.199,405.113 -8.484,1.688 V 151.43 Z"/>
          <path id="path188" style="fill:#000000;fill-opacity:1;fill-rule:nonzero;stroke:none" d="m 763.648,276.277 -1.16,0.231 4.832,1.715 z m -1.519,2.383 0.941,1.098 4.25,-1.535 z"/>
          <path id="path190" style="fill:#eeeeee;fill-opacity:0.4;fill-rule:nonzero;stroke:none" d="M 737.262,149.41 V 404.781 L 750.961,150.457 Z"/>
          <path id="path192" style="fill:#000000;fill-opacity:1;fill-rule:nonzero;stroke:none" d="m 762.488,276.508 -0.359,2.152 5.191,-0.437 z"/>
          <g id="g194">
            <path id="path196" style="fill:none;stroke:#000000;stroke-width:0.75;stroke-linecap:round;stroke-linejoin:miter;stroke-miterlimit:4;stroke-dasharray:none;stroke-opacity:1" d="M 777.418,152.477 V 407.844"/>
          </g>
          <path id="path198" style="fill:#eeeeee;fill-opacity:0.4;fill-rule:nonzero;stroke:none" d="m 750.961,150.457 v 255.371 l 8.484,-257.058 z m 26.457,257.387 8.484,-1.688 V 150.789 Z"/>
          <g id="g200">
            <path id="path202" style="fill:none;stroke:#000000;stroke-width:0.75;stroke-linecap:round;stroke-linejoin:miter;stroke-miterlimit:4;stroke-dasharray:none;stroke-opacity:1" d="m 759.445,148.77 -8.484,1.687"/>
          </g>
          <path id="path204" style="fill:#eeeeee;fill-opacity:0.4;fill-rule:nonzero;stroke:none" d="m 790.168,396.812 8.484,-1.687 13.703,1.047 z m -39.207,-246.355 8.484,-1.687 -13.699,-1.047 z m 21.238,-0.715 V 405.113 L 763.715,151.43 Z"/>
          <g id="g206">
            <path id="path208" style="fill:none;stroke:#000000;stroke-width:0.75;stroke-linecap:round;stroke-linejoin:miter;stroke-miterlimit:4;stroke-dasharray:none;stroke-opacity:1" d="m 812.355,164.812 v 231.36 m 0,0 -8.484,1.687"/>
          </g>
          <path id="path210" style="fill:#eeeeee;fill-opacity:0.4;fill-rule:nonzero;stroke:none" d="M 785.902,150.789 V 406.156 L 772.199,149.742 Z m -48.64,-1.379 13.699,1.047 -5.215,-2.734 z"/>
          <g id="g212">
            <path id="path214" style="fill:none;stroke:#000000;stroke-width:0.75;stroke-linecap:round;stroke-linejoin:miter;stroke-miterlimit:4;stroke-dasharray:none;stroke-opacity:1" d="m 737.262,149.41 13.699,1.047"/>
          </g>
          <path id="path216" style="fill:#eeeeee;fill-opacity:0.4;fill-rule:nonzero;stroke:none" d="m 763.715,406.801 13.703,1.043 V 152.477 Z m 48.64,-10.629 -13.703,-1.047 V 163.766 Z"/>
          <g id="g218">
            <path id="path220" style="fill:none;stroke:#000000;stroke-width:0.75;stroke-linecap:round;stroke-linejoin:miter;stroke-miterlimit:4;stroke-dasharray:none;stroke-opacity:1" d="m 790.168,165.453 v 231.359 m 0,0 13.703,1.047 m -21.574,-118.496 7.226,0.555 m -3.621,-129.129 -13.703,-1.047 m 0,0 -8.484,1.688"/>
          </g>
          <path id="path222" style="fill:#eeeeee;fill-opacity:0.4;fill-rule:nonzero;stroke:none" d="m 803.871,397.859 -13.703,-1.047 22.187,-0.64 z m -5.219,-2.734 -8.484,1.687 V 165.453 Z"/>
          <path id="path224" style="fill:#000000;fill-opacity:1;fill-rule:nonzero;stroke:none" d="m 790.102,278.297 -1.161,0.23 4.832,1.715 z m -1.516,2.383 0.937,1.097 4.25,-1.535 z"/>
          <path id="path226" style="fill:#eeeeee;fill-opacity:0.4;fill-rule:nonzero;stroke:none" d="M 763.715,151.43 V 406.801 L 777.418,152.477 Z"/>
          <path id="path228" style="fill:#000000;fill-opacity:1;fill-rule:nonzero;stroke:none" d="m 788.941,278.527 -0.355,2.153 5.187,-0.438 z"/>
          <path id="path230" style="fill:#eeeeee;fill-opacity:0.4;fill-rule:nonzero;stroke:none" d="m 777.418,152.477 v 255.367 l 8.484,-257.055 z"/>
          <g id="g232">
            <path id="path234" style="fill:none;stroke:#000000;stroke-width:0.75;stroke-linecap:round;stroke-linejoin:miter;stroke-miterlimit:4;stroke-dasharray:none;stroke-opacity:1" d="m 803.871,166.5 v 231.359 m -17.969,-247.07 -8.484,1.688"/>
          </g>
          <path id="path236" style="fill:#eeeeee;fill-opacity:0.4;fill-rule:nonzero;stroke:none" d="m 803.871,397.859 8.484,-1.687 v -231.36 z m -5.219,-234.093 v 231.359 l -8.484,-229.672 z m -21.234,-11.289 8.484,-1.688 -13.703,-1.047 z m 34.937,12.335 v 231.36 L 798.652,163.766 Z m -48.64,-13.382 13.703,1.047 -5.219,-2.735 z"/>
          <g id="g238">
            <path id="path240" style="fill:none;stroke:#000000;stroke-width:0.75;stroke-linecap:round;stroke-linejoin:miter;stroke-miterlimit:4;stroke-dasharray:none;stroke-opacity:1" d="m 763.715,151.43 13.703,1.047 m 34.937,12.335 -13.703,-1.046 m 0,0 -8.484,1.687"/>
          </g>
          <path id="path242" style="fill:#eeeeee;fill-opacity:0.4;fill-rule:nonzero;stroke:none" d="m 790.168,396.812 13.703,1.047 V 166.5 Z m 0,-231.359 V 396.812 L 803.871,166.5 Z m 13.703,1.047 v 231.359 l 8.484,-233.047 z"/>
          <g id="g244">
            <path id="path246" style="fill:none;stroke:#000000;stroke-width:0.75;stroke-linecap:round;stroke-linejoin:miter;stroke-miterlimit:4;stroke-dasharray:none;stroke-opacity:1" d="m 812.355,164.812 -8.484,1.688"/>
          </g>
          <path id="path248" style="fill:#eeeeee;fill-opacity:0.4;fill-rule:nonzero;stroke:none" d="m 803.871,166.5 8.484,-1.688 -13.703,-1.046 z m -13.703,-1.047 13.703,1.047 -5.219,-2.734 z"/>
          <g id="g250">
            <path id="path252" style="fill:none;stroke:#000000;stroke-width:0.75;stroke-linecap:round;stroke-linejoin:miter;stroke-miterlimit:4;stroke-dasharray:none;stroke-opacity:1" d="m 790.168,165.453 13.703,1.047"/>
          </g>
        </g>
      </g>
      <g id="g254">
        <text id="text258" style="font-variant: normal; font-weight: normal; font-size: 9px; font-family: ArialMT-Identity; writing-mode: lr-tb; fill: rgb(0, 0, 0); fill-opacity: 1; fill-rule: nonzero; stroke: none; white-space: pre;" transform="matrix(1,0,0,-1,391.59,179.83)"><tspan id="tspan256" y="0" x="0 2.5020001 7.506 12.51 17.514 20.016001 22.518 24.516001 32.013 37.016998 42.021 47.025002 49.527 52.523998 57.528 62.532001 67.536003 70.038002 72.540001 77.543999 82.547997 87.552002 90.054001 92.556 97.559998">Input image (225, 225, 3)</tspan></text>
      </g>
      <g id="g260">
        <text id="text264" style="font-variant: normal; font-weight: normal; font-size: 9px; font-family: ArialMT-Identity; writing-mode: lr-tb; fill: rgb(0, 0, 0); fill-opacity: 1; fill-rule: nonzero; stroke: none; white-space: pre;" transform="matrix(1,0,0,-1,565.25,199.76)"><tspan id="tspan262" y="0" x="0 6.0029998 8.5050001 11.007 13.005 17.504999 19.503 24.507 29.511 32.013 38.511002 43.514999 46.016998 52.02 57.023998 59.526001 62.028 67.031998 72.036003 74.538002 79.542 84.545998 87.047997 92.052002 97.056 99.557999 102.06 105.057 110.061 115.065 120.069 125.073 127.575 130.57201">EfficientNetV2, b1 output (1280,) </tspan></text>
      </g>
      <g id="g266">
        <text id="text270" style="font-variant: normal; font-weight: normal; font-size: 9px; font-family: ArialMT-Identity; writing-mode: lr-tb; fill: rgb(0, 0, 0); fill-opacity: 1; fill-rule: nonzero; stroke: none; white-space: pre;" transform="matrix(1,0,0,-1,749.16,394.49)"><tspan id="tspan268" y="0" x="0 7.4970002 12.501 18.504 21.006001 25.506001 27.504 32.507999 37.007999 41.507999 43.506001 46.007999 48.006001 53.009998">MLP classifier</tspan></text>
      </g>
      <g id="g272">
        <text id="text276" style="font-variant: normal; font-weight: normal; font-size: 9px; font-family: ArialMT-Identity; writing-mode: lr-tb; fill: rgb(0, 0, 0); fill-opacity: 1; fill-rule: nonzero; stroke: none; white-space: pre;" transform="matrix(1,0,0,-1,723.54,109.23)"><tspan id="tspan274" y="0" x="0 2.997 8.0010004 13.005 18.009001 20.511">(512,)</tspan></text>
      </g>
      <g id="g278">
        <text id="text282" style="font-variant: normal; font-weight: normal; font-size: 9px; font-family: ArialMT-Identity; writing-mode: lr-tb; fill: rgb(0, 0, 0); fill-opacity: 1; fill-rule: nonzero; stroke: none; white-space: pre;" transform="matrix(1,0,0,-1,754.85,109.23)"><tspan id="tspan280" y="0" x="0 2.997 8.0010004 13.005 18.009001 20.511">(256,)</tspan></text>
      </g>
      <g id="g284">
        <text id="text288" style="font-variant: normal; font-weight: normal; font-size: 9px; font-family: ArialMT-Identity; writing-mode: lr-tb; fill: rgb(0, 0, 0); fill-opacity: 1; fill-rule: nonzero; stroke: none; white-space: pre;" transform="matrix(1,0,0,-1,790.15,109.23)"><tspan id="tspan286" y="0" x="0 2.997 8.0010004 10.503">(6,)</tspan></text>
      </g>
      <g id="g290">
        <text id="text294" style="font-variant: normal; font-weight: normal; font-size: 9px; font-family: ArialMT-Identity; writing-mode: lr-tb; fill: rgb(0, 0, 0); fill-opacity: 1; fill-rule: nonzero; stroke: none; white-space: pre;" transform="matrix(1,0,0,-1,824.88,226.52)"><tspan id="tspan292" y="0" x="0 7.0019999 12.006 14.508 19.511999 24.516001 27.018 29.52 34.02 36.018002 41.021999 45.521999 50.021999 55.026001">Output classes</tspan></text>
      </g>
    </g>
    <g transform="translate(389.89,102.35)" id="g296">
      <g transform="translate(50.976,42.602)" id="g298">
        <g id="g300"/>
        <g id="g314">
          <g id="g312" clip-path="url(#clipPath304)">
            <g id="g310" transform="matrix(1,0,0,-1,0,45)">
              <g id="g308">
                <path id="path306" style="fill:#ffffff;fill-opacity:1;fill-rule:nonzero;stroke:none" d="M 0,0 H 102 V 45 H 0 Z"/>
              </g>
            </g>
          </g>
        </g>
      </g>
    </g>
    <g transform="translate(389.89,102.35)" id="g316">
      <text id="text320" style="font-variant: normal; font-weight: normal; font-size: 9px; font-family: ArialMT-Identity; writing-mode: lr-tb; fill: rgb(0, 0, 0); fill-opacity: 1; fill-rule: nonzero; stroke: none; white-space: pre;" transform="matrix(1,0,0,-1,50.94,77.343)"><tspan id="tspan318" y="0" x="0 2.997 8.0010004 13.005 18.009001 20.511 23.013 28.017 33.021 38.025002 40.527 43.028999 48.033001">(224, 224, 3)</tspan></text>
    </g>
  </g>
</svg>