<svg viewBox="-768 -351.5 1536 703" width="1536" height="703" style="background-color: rgb(255, 255, 255);" xmlns="http://www.w3.org/2000/svg"><path d="M-42.59850197341,67.83424667320273L-84.63050203425868,64.62724597292525M-84.63050203425868,-101.85533805721943L-84.63050203425868,64.62724597292525M-84.63050203425868,64.62724597292525L-172.94889461267644,82.20228076211305" style="fill:none;stroke:rgb(0,0,0);stroke-width:1;stroke-linecap:round"></path><path d="M-42.59850197340999,67.83424667320273L-84.63050203425871,64.62724597292525L-84.63050203425871,-101.85533805721943z" style="fill:rgb(238,238,238); fill-opacity: 0.4"></path><path d="M-42.59850197341,-98.64833735694194L-84.63050203425868,-101.85533805721943M-84.63050203425868,-101.85533805721943L-172.94889461267644,-84.28030326803163M-42.59850197341,-98.64833735694194L-42.59850197341,67.83424667320273M-42.59850197341,67.83424667320273L-130.9168945518278,85.40928146239054" style="fill:none;stroke:rgb(0,0,0);stroke-width:1;stroke-linecap:round"></path><path d="M-42.59850197340999,-98.64833735694194L-42.59850197340999,67.83424667320273L-84.63050203425871,-101.85533805721943z" style="fill:rgb(238,238,238); fill-opacity: 0.4"></path><path d="M-42.59850197341,-98.64833735694194L-130.9168945518278,-81.07330256775413" style="fill:none;stroke:rgb(0,0,0);stroke-width:1;stroke-linecap:round"></path><path d="M-172.94889461267647,82.20228076211306L-84.63050203425871,64.62724597292525L-42.59850197340999,67.83424667320273zM-84.63050203425871,-101.85533805721943L-84.63050203425871,64.62724597292525L-172.94889461267647,-84.28030326803162z" style="fill:rgb(238,238,238); fill-opacity: 0.4"></path><path d="M-80.71958841840632,47.550116301091016L-122.75158847925502,44.343115600813526M-122.75158847925502,24.495528596645745L-122.75158847925502,44.343115600813526M-122.75158847925502,44.343115600813526L-133.28065967898482,46.43836198416207M-80.71958841840632,27.702529296923235L-122.75158847925502,24.495528596645745M-122.75158847925502,24.495528596645745L-133.28065967898482,26.590774979994286" style="fill:none;stroke:rgb(0,0,0);stroke-width:1;stroke-linecap:round"></path><path d="M-122.75158847925502,24.49552859664574L-122.75158847925502,44.34311560081353L-133.28065967898482,26.590774979994286zM-80.71958841840629,47.550116301091016L-122.75158847925502,44.34311560081353L-122.75158847925502,24.49552859664574zM-122.75158847925502,44.34311560081353L-133.28065967898482,46.43836198416207L-133.28065967898482,26.590774979994286zM-133.28065967898482,46.43836198416207L-122.75158847925502,44.34311560081353L-80.71958841840629,47.550116301091016z" style="fill:rgb(153,221,255); fill-opacity: 0.4"></path><path d="M215.46146515671745,50.1312929569145L-48.823562029622764,29.966602577383366M-48.823562029622764,-48.94088117049742L-48.823562029622764,29.966602577383366M-48.823562029622764,29.966602577383366L-90.683689127113,38.296613671788116" style="fill:none;stroke:rgb(0,0,0);stroke-width:1;stroke-linecap:round"></path><path d="M-130.91689455182777,85.40928146239054L-42.59850197340999,67.83424667320273L-42.59850197340999,-98.64833735694194z" style="fill:rgb(238,238,238); fill-opacity: 0.4"></path><path d="M-133.28065967898482,26.590774979994286L-133.28065967898482,46.43836198416207M-133.28065967898482,46.43836198416207L-91.24865961813612,49.645362684439554" style="fill:none;stroke:rgb(0,0,0);stroke-width:1;stroke-linecap:round"></path><path d="M-80.71958841840629,27.702529296923235L-80.71958841840629,47.550116301091016L-122.75158847925502,24.49552859664574z" style="fill:rgb(153,221,255); fill-opacity: 0.4"></path><path d="M-133.28065967898482,26.590774979994286L-91.24865961813612,29.79777568027178" style="fill:none;stroke:rgb(0,0,0);stroke-width:1;stroke-linecap:round"></path><path d="M-130.91689455182777,-81.07330256775413L-42.59850197340999,-98.64833735694194L-84.63050203425871,-101.85533805721943z" style="fill:rgb(238,238,238); fill-opacity: 0.4"></path><path d="M-133.28065967898482,26.590774979994286L-91.2486596181361,29.79777568027178L-122.75158847925502,24.49552859664574z" style="fill:rgb(153,221,255); fill-opacity: 0.4"></path><path d="M215.46146515671745,-28.77619079096627L-48.823562029622764,-48.94088117049742M-48.823562029622764,-48.94088117049742L-90.683689127113,-40.61087007609266" style="fill:none;stroke:rgb(0,0,0);stroke-width:1;stroke-linecap:round"></path><path d="M-91.2486596181361,29.79777568027178L-80.71958841840629,27.702529296923235L-122.75158847925502,24.49552859664574z" style="fill:rgb(153,221,255); fill-opacity: 0.4"></path><path d="M-80.71958841840632,27.702529296923235L-80.71958841840632,47.550116301091016M-80.71958841840632,47.550116301091016L-91.24865961813612,49.645362684439554M-80.71958870057586,27.702528163278863L-80.71958870057586,47.55011516744665M-80.71958870057586,47.55011516744665L-91.24865990030565,49.645361550795194M-80.71958870057586,47.55011516744665L-69.3869708793472,16.14554322620598" style="fill:none;stroke:rgb(0,0,0);stroke-width:1;stroke-linecap:round"></path><path d="M-133.28065967898482,26.590774979994286L-133.28065967898482,46.43836198416207L-91.2486596181361,29.79777568027178z" style="fill:rgb(153,221,255); fill-opacity: 0.4"></path><path d="M-80.71958841840632,27.702529296923235L-91.24865961813612,29.79777568027178M-80.71958870057586,27.702528163278863L-91.24865990030565,29.79777454662741M-80.71958870057586,27.702528163278863L-69.3869708793472,16.14554322620598" style="fill:none;stroke:rgb(0,0,0);stroke-width:1;stroke-linecap:round"></path><path d="M-91.2486596181361,49.645362684439554L-133.28065967898482,46.43836198416207L-80.71958841840629,47.550116301091016z" style="fill:rgb(153,221,255); fill-opacity: 0.4"></path><path d="M-80.71958859511982,27.702529283440164L-80.71958859511983,47.550116287607956L-91.24865979484963,49.64536267095649z" style="fill:rgb(255,187,187); fill-opacity: 0.4"></path><path d="M-91.2486596181361,49.645362684439554L-80.71958841840629,47.550116301091016L-80.71958841840629,27.702529296923235z" style="fill:rgb(153,221,255); fill-opacity: 0.4"></path><path d="M-80.71958859511983,47.550116287607956L-80.71958859511982,27.702529283440164L-69.38697093632743,16.145543141245142z" style="fill:rgb(255,187,187); fill-opacity: 0.4"></path><path d="M-133.28065967898482,46.43836198416207L-91.2486596181361,49.645362684439554L-91.2486596181361,29.79777568027178z" style="fill:rgb(153,221,255); fill-opacity: 0.4"></path><path d="M-84.63050203425871,64.62724597292525L-172.94889461267647,82.20228076211306L-172.94889461267647,-84.28030326803162z" style="fill:rgb(238,238,238); fill-opacity: 0.4"></path><path d="M-80.71958859511982,27.702529283440164L-91.24865979484963,49.64536267095649L-91.24865979484963,29.79777566678871z" style="fill:rgb(255,187,187); fill-opacity: 0.4"></path><path d="M-91.2486596181361,29.79777568027178L-91.2486596181361,49.645362684439554L-80.71958841840629,27.702529296923235z" style="fill:rgb(153,221,255); fill-opacity: 0.4"></path><path d="M-91.24865979484963,49.64536267095649L-80.71958859511983,47.550116287607956L-69.38697093632743,16.145543141245142zM-80.71958859511982,27.702529283440164L-91.24865979484963,29.79777566678871L-69.38697093632743,16.145543141245142z" style="fill:rgb(255,187,187); fill-opacity: 0.4"></path><path d="M-91.24865961813612,29.79777568027178L-91.24865961813612,49.645362684439554M-91.24865990030565,49.645361550795194L-91.24865990030565,29.79777454662741M-91.24865990030565,49.645361550795194L-69.3869708793472,16.14554322620598" style="fill:none;stroke:rgb(0,0,0);stroke-width:1;stroke-linecap:round"></path><path d="M-48.823562029622764,-48.940881170497406L-48.823562029622764,29.966602577383366L-90.683689127113,-40.61087007609266z" style="fill:rgb(238,238,238); fill-opacity: 0.4"></path><path d="M-91.24865990030565,29.79777454662741L-69.3869708793472,16.14554322620598" style="fill:none;stroke:rgb(0,0,0);stroke-width:1;stroke-linecap:round"></path><path d="M-91.24865979484963,29.79777566678871L-91.24865979484963,49.64536267095649L-69.38697093632743,16.145543141245142z" style="fill:rgb(255,187,187); fill-opacity: 0.4"></path><path d="M-130.91689455182777,85.40928146239054L-172.94889461267647,82.20228076211306L-42.59850197340999,67.83424667320273zM-172.94889461267647,-84.28030326803162L-130.91689455182777,-81.07330256775413L-84.63050203425871,-101.85533805721943zM-48.823562029622764,29.966602577383366L-90.683689127113,38.296613671788116L-90.683689127113,-40.61087007609266zM-130.91689455182777,-81.07330256775413L-130.91689455182777,85.40928146239054L-42.59850197340999,-98.64833735694194zM215.46146515671745,50.1312929569145L-48.823562029622764,29.966602577383366L-48.823562029622764,-48.940881170497406z" style="fill:rgb(238,238,238); fill-opacity: 0.4"></path><path d="M-172.94889461267644,-84.28030326803163L-172.94889461267644,82.20228076211305M-172.94889461267644,82.20228076211305L-130.9168945518278,85.40928146239054M-90.683689127113,-40.61087007609266L-90.683689127113,38.296613671788116M-90.683689127113,38.296613671788116L173.6013380592272,58.46130405131926" style="fill:none;stroke:rgb(0,0,0);stroke-width:1;stroke-linecap:round"></path><path d="M-90.683689127113,38.296613671788116L-48.823562029622764,29.966602577383366L215.46146515671745,50.1312929569145z" style="fill:rgb(238,238,238); fill-opacity: 0.4"></path><path d="M-90.683689127113,-40.61087007609266L173.6013380592272,-20.44617969656152M-172.94889461267644,-84.28030326803163L-130.9168945518278,-81.07330256775413" style="fill:none;stroke:rgb(0,0,0);stroke-width:1;stroke-linecap:round"></path><path d="M-172.94889461267647,-84.28030326803162L-172.94889461267647,82.20228076211306L-130.91689455182777,-81.07330256775413zM-172.94889461267647,82.20228076211306L-130.91689455182777,85.40928146239054L-130.91689455182777,-81.07330256775413z" style="fill:rgb(238,238,238); fill-opacity: 0.4"></path><path d="M-130.9168945518278,-81.07330256775413L-130.9168945518278,85.40928146239054" style="fill:none;stroke:rgb(0,0,0);stroke-width:1;stroke-linecap:round"></path><path d="M-90.683689127113,-40.61087007609266L173.6013380592272,-20.44617969656152L-48.823562029622764,-48.940881170497406zM215.46146515671745,-28.77619079096627L215.46146515671745,50.1312929569145L-48.823562029622764,-48.940881170497406zM-90.683689127113,-40.61087007609266L-90.683689127113,38.296613671788116L173.6013380592272,-20.44617969656152zM173.6013380592272,-20.44617969656152L215.46146515671745,-28.77619079096627L-48.823562029622764,-48.940881170497406zM173.6013380592272,58.46130405131926L-90.683689127113,38.296613671788116L215.46146515671745,50.1312929569145z" style="fill:rgb(238,238,238); fill-opacity: 0.4"></path><path d="M215.46146515671745,-28.77619079096627L215.46146515671745,50.1312929569145M215.46146515671745,50.1312929569145L173.6013380592272,58.46130405131926M215.46146515671745,-28.77619079096627L173.6013380592272,-20.44617969656152" style="fill:none;stroke:rgb(0,0,0);stroke-width:1;stroke-linecap:round"></path><path d="M-90.683689127113,38.296613671788116L173.6013380592272,58.46130405131926L173.6013380592272,-20.44617969656152z" style="fill:rgb(238,238,238); fill-opacity: 0.4"></path><path d="M244.59478995186703,187.35181813486432L226.32598106834075,185.95792579574442M226.32598106834075,-154.53521856644463L226.32598106834075,185.95792579574442M226.32598106834075,185.95792579574442L215.01377746347748,188.20901264293" style="fill:none;stroke:rgb(0,0,0);stroke-width:1;stroke-linecap:round"></path><path d="M173.6013380592272,58.46130405131926L215.46146515671745,50.1312929569145L215.46146515671745,-28.77619079096627zM215.01377746347748,188.20901264293L226.32598106834075,185.95792579574442L244.594789951867,187.35181813486432z" style="fill:rgb(238,238,238); fill-opacity: 0.4"></path><path d="M244.59478995186703,-153.14132622732475L244.59478995186703,187.35181813486432M244.59478995186703,187.35181813486432L233.28258634700376,189.60290498204986" style="fill:none;stroke:rgb(0,0,0);stroke-width:1;stroke-linecap:round"></path><path d="M244.594789951867,187.35181813486432L226.32598106834075,185.95792579574442L226.3259810683408,-154.53521856644463z" style="fill:rgb(238,238,238); fill-opacity: 0.4"></path><path d="M215.01377746347748,-152.28413171925908L215.01377746347748,188.20901264293M215.01377746347748,188.20901264293L233.28258634700376,189.60290498204986" style="fill:none;stroke:rgb(0,0,0);stroke-width:1;stroke-linecap:round"></path><path d="M233.2825863470037,189.60290498204992L215.01377746347748,188.20901264293L244.594789951867,187.35181813486432z" style="fill:rgb(238,238,238); fill-opacity: 0.4"></path><path d="M204.5160052385713,15.604372170454578L214.1516492892894,16.339562434385442M279.86767692716376,190.04310508449373L261.5988680436375,188.64921274537386M261.5988680436375,-151.8439316168152L261.5988680436375,188.64921274537386M261.5988680436375,188.64921274537386L250.28666443877418,190.9002995925594" style="fill:none;stroke:rgb(0,0,0);stroke-width:1;stroke-linecap:round"></path><path d="M226.32598106834075,185.95792579574442L215.01377746347748,188.20901264293L215.0137774634775,-152.28413171925908zM173.6013380592272,-20.44617969656152L173.6013380592272,58.46130405131926L215.46146515671745,-28.77619079096627z" style="fill:rgb(238,238,238); fill-opacity: 0.4"></path><path d="M214.92525337480197,14.178488652727971L213.37804520377682,14.486377379390863L219.8196752014765,16.772027295521237zM212.89993153619454,17.355304886928586L214.1516492892894,18.820510809906413L219.8196752014765,16.772027295521237zM213.37804520377682,14.486377379390863L212.89993153619454,17.355304886928586L219.8196752014765,16.772027295521237z" style="fill:rgb(0,0,0)"></path><path d="M233.28258634700376,-150.89023938013918L233.28258634700376,189.60290498204986" style="fill:none;stroke:rgb(0,0,0);stroke-width:1;stroke-linecap:round"></path><path d="M233.2825863470037,189.60290498204992L244.594789951867,187.35181813486432L244.59478995186703,-153.14132622732473zM250.28666443877418,190.9002995925594L261.5988680436375,188.64921274537386L279.86767692716376,190.04310508449373z" style="fill:rgb(238,238,238); fill-opacity: 0.4"></path><path d="M279.86767692716376,-150.4500392776953L279.86767692716376,190.04310508449373M279.86767692716376,190.04310508449373L268.5554733223005,192.2941919316793" style="fill:none;stroke:rgb(0,0,0);stroke-width:1;stroke-linecap:round"></path><path d="M226.3259810683408,-154.53521856644463L226.32598106834075,185.95792579574442L215.0137774634775,-152.28413171925908zM244.59478995186703,-153.14132622732473L244.594789951867,187.35181813486432L226.3259810683408,-154.53521856644463zM279.86767692716376,190.04310508449373L261.5988680436375,188.64921274537386L261.5988680436375,-151.8439316168152zM215.01377746347748,188.20901264293L233.2825863470037,189.60290498204992L233.28258634700376,-150.89023938013918z" style="fill:rgb(238,238,238); fill-opacity: 0.4"></path><path d="M250.28666443877418,-149.59284476962966L250.28666443877418,190.9002995925594M250.28666443877418,190.9002995925594L268.5554733223005,192.2941919316793" style="fill:none;stroke:rgb(0,0,0);stroke-width:1;stroke-linecap:round"></path><path d="M268.5554733223005,192.29419193167934L250.28666443877418,190.9002995925594L279.86767692716376,190.04310508449373z" style="fill:rgb(238,238,238); fill-opacity: 0.4"></path><path d="M239.788892213868,18.295659120084L249.4245362645861,19.030849384014864M244.59478995186703,-153.14132622732475L226.32598106834075,-154.53521856644463M226.32598106834075,-154.53521856644463L215.01377746347748,-152.28413171925908M173.6013380592272,-20.44617969656152L173.6013380592272,58.46130405131926M315.1405639024604,176.72788368493218L296.87175501893415,175.3339913458123M296.87175501893415,-133.1461363179948L296.87175501893415,175.3339913458123M296.87175501893415,175.3339913458123L285.5595514140709,177.58507819299786" style="fill:none;stroke:rgb(0,0,0);stroke-width:1;stroke-linecap:round"></path><path d="M261.5988680436375,188.64921274537386L250.28666443877418,190.9002995925594L250.2866644387742,-149.59284476962966z" style="fill:rgb(238,238,238); fill-opacity: 0.4"></path><path d="M250.19814035009864,16.86977560235739L248.6509321790735,17.17766432902028L255.0925621767732,19.463314245150663zM248.17281851149122,20.046591836558008L249.42453626458607,21.511797759535835L255.0925621767732,19.463314245150663z" style="fill:rgb(0,0,0)"></path><path d="M215.0137774634775,-152.28413171925908L215.01377746347748,188.20901264293L233.28258634700376,-150.89023938013918z" style="fill:rgb(238,238,238); fill-opacity: 0.4"></path><path d="M248.6509321790735,17.17766432902028L248.17281851149122,20.046591836558008L255.0925621767732,19.463314245150663z" style="fill:rgb(0,0,0)"></path><path d="M268.5554733223005,-148.19895243050976L268.5554733223005,192.2941919316793" style="fill:none;stroke:rgb(0,0,0);stroke-width:1;stroke-linecap:round"></path><path d="M233.28258634700376,-150.89023938013918L233.2825863470037,189.60290498204992L244.59478995186703,-153.14132622732473zM268.5554733223005,192.29419193167934L279.86767692716376,190.04310508449373L279.8676769271638,-150.4500392776953z" style="fill:rgb(238,238,238); fill-opacity: 0.4"></path><path d="M244.59478995186703,-153.14132622732475L233.28258634700376,-150.89023938013918" style="fill:none;stroke:rgb(0,0,0);stroke-width:1;stroke-linecap:round"></path><path d="M285.5595514140709,177.58507819299786L296.87175501893415,175.33399134581228L315.1405639024604,176.72788368493224zM233.28258634700376,-150.89023938013918L244.59478995186703,-153.14132622732473L226.3259810683408,-154.53521856644463zM261.5988680436375,-151.8439316168152L261.5988680436375,188.64921274537386L250.2866644387742,-149.59284476962966z" style="fill:rgb(238,238,238); fill-opacity: 0.4"></path><path d="M315.1405639024604,-131.75224397887493L315.1405639024604,176.72788368493218M315.1405639024604,176.72788368493218L303.82836029759716,178.97897053211776" style="fill:none;stroke:rgb(0,0,0);stroke-width:1;stroke-linecap:round"></path><path d="M279.8676769271638,-150.4500392776953L279.86767692716376,190.04310508449373L261.5988680436375,-151.8439316168152zM215.0137774634775,-152.28413171925908L233.28258634700376,-150.89023938013918L226.3259810683408,-154.53521856644463z" style="fill:rgb(238,238,238); fill-opacity: 0.4"></path><path d="M215.01377746347748,-152.28413171925908L233.28258634700376,-150.89023938013918" style="fill:none;stroke:rgb(0,0,0);stroke-width:1;stroke-linecap:round"></path><path d="M250.28666443877418,190.9002995925594L268.5554733223005,192.29419193167934L268.5554733223005,-148.19895243050973zM315.1405639024604,176.72788368493224L296.87175501893415,175.33399134581228L296.8717550189342,-133.1461363179948z" style="fill:rgb(238,238,238); fill-opacity: 0.4"></path><path d="M285.5595514140709,-130.89504947080925L285.5595514140709,177.58507819299786M285.5595514140709,177.58507819299786L303.82836029759716,178.97897053211776M275.0617791891648,20.986946069713426L284.6974232398829,21.722136333644286M279.86767692716376,-150.4500392776953L261.5988680436375,-151.8439316168152M261.5988680436375,-151.8439316168152L250.28666443877418,-149.59284476962966" style="fill:none;stroke:rgb(0,0,0);stroke-width:1;stroke-linecap:round"></path><path d="M303.82836029759716,178.97897053211776L285.5595514140709,177.58507819299786L315.1405639024604,176.72788368493224zM296.87175501893415,175.33399134581228L285.5595514140709,177.58507819299786L285.55955141407094,-130.89504947080928z" style="fill:rgb(238,238,238); fill-opacity: 0.4"></path><path d="M285.4710273253954,19.561062551986815L283.9238191543702,19.868951278649707L290.3654491520699,22.154601194780092zM283.445705486788,22.737878786187434L284.6974232398828,24.20308470916526L290.3654491520699,22.154601194780092z" style="fill:rgb(0,0,0)"></path><path d="M250.2866644387742,-149.59284476962966L250.28666443877418,190.9002995925594L268.5554733223005,-148.19895243050973z" style="fill:rgb(238,238,238); fill-opacity: 0.4"></path><path d="M283.9238191543702,19.868951278649707L283.445705486788,22.737878786187434L290.3654491520699,22.154601194780092z" style="fill:rgb(0,0,0)"></path><path d="M268.5554733223005,-148.19895243050973L268.5554733223005,192.29419193167934L279.8676769271638,-150.4500392776953z" style="fill:rgb(238,238,238); fill-opacity: 0.4"></path><path d="M303.82836029759716,-129.50115713168935L303.82836029759716,178.97897053211776M279.86767692716376,-150.4500392776953L268.5554733223005,-148.19895243050976" style="fill:none;stroke:rgb(0,0,0);stroke-width:1;stroke-linecap:round"></path><path d="M303.82836029759716,178.97897053211776L315.1405639024604,176.72788368493224L315.1405639024605,-131.75224397887493zM296.8717550189342,-133.1461363179948L296.87175501893415,175.33399134581228L285.55955141407094,-130.89504947080928zM268.5554733223005,-148.19895243050973L279.8676769271638,-150.4500392776953L261.5988680436375,-151.8439316168152zM315.1405639024605,-131.75224397887493L315.1405639024604,176.72788368493224L296.8717550189342,-133.1461363179948zM250.2866644387742,-149.59284476962966L268.5554733223005,-148.19895243050973L261.5988680436375,-151.8439316168152z" style="fill:rgb(238,238,238); fill-opacity: 0.4"></path><path d="M250.28666443877418,-149.59284476962966L268.5554733223005,-148.19895243050976M315.1405639024604,-131.75224397887493L296.87175501893415,-133.1461363179948M296.87175501893415,-133.1461363179948L285.5595514140709,-130.89504947080925" style="fill:none;stroke:rgb(0,0,0);stroke-width:1;stroke-linecap:round"></path><path d="M285.5595514140709,177.58507819299786L303.82836029759716,178.97897053211776L303.8283602975972,-129.50115713168935zM285.55955141407094,-130.89504947080928L285.5595514140709,177.58507819299786L303.8283602975972,-129.50115713168935zM303.8283602975972,-129.50115713168935L303.82836029759716,178.97897053211776L315.1405639024605,-131.75224397887493z" style="fill:rgb(238,238,238); fill-opacity: 0.4"></path><path d="M315.1405639024604,-131.75224397887493L303.82836029759716,-129.50115713168935" style="fill:none;stroke:rgb(0,0,0);stroke-width:1;stroke-linecap:round"></path><path d="M303.8283602975972,-129.50115713168935L315.1405639024605,-131.75224397887493L296.8717550189342,-133.1461363179948zM285.55955141407094,-130.89504947080928L303.8283602975972,-129.50115713168935L296.8717550189342,-133.1461363179948z" style="fill:rgb(238,238,238); fill-opacity: 0.4"></path><path d="M285.5595514140709,-130.89504947080925L303.82836029759716,-129.50115713168935" style="fill:none;stroke:rgb(0,0,0);stroke-width:1;stroke-linecap:round"></path></svg>